<svg xmlns="http://www.w3.org/2000/svg" viewBox="0 0 750 500"><g id="freepik--background-complete--inject-68"><rect x="649.11" y="175.79" width="67.4" height="70.26" style="fill:#e0e0e0"></rect><rect x="644.54" y="175.79" width="67.4" height="70.26" style="fill:#455a64"></rect><path d="M712,246.07H644.52v-70.3H712Z" style="fill:#f5f5f5"></path><rect x="653.61" y="185.23" width="49.28" height="51.37" style="fill:#fafafa"></rect><path d="M653.61,236.94a8.22,8.22,0,0,1-1.22,1.42c-.79.83-1.89,1.95-3.13,3.17s-2.38,2.31-3.22,3.08a7.35,7.35,0,0,1-1.43,1.19,8.47,8.47,0,0,1,1.21-1.41c.79-.83,1.9-2,3.14-3.18s2.39-2.31,3.23-3.09A8.05,8.05,0,0,1,653.61,236.94Z" style="fill:#e0e0e0"></path><path d="M702.88,236.82A7.84,7.84,0,0,1,704.3,238c.83.79,2,1.9,3.17,3.13s2.31,2.38,3.09,3.22a7.86,7.86,0,0,1,1.18,1.43,7.89,7.89,0,0,1-1.41-1.21c-.83-.79-2-1.9-3.18-3.14s-2.31-2.39-3.09-3.23A8.25,8.25,0,0,1,702.88,236.82Z" style="fill:#e0e0e0"></path><path d="M702.75,185.37A7.86,7.86,0,0,1,704,184c.78-.84,1.89-2,3.13-3.18s2.38-2.31,3.22-3.08a8.47,8.47,0,0,1,1.42-1.19,7.89,7.89,0,0,1-1.21,1.41c-.79.83-1.89,2-3.14,3.18s-2.38,2.32-3.22,3.09A7.51,7.51,0,0,1,702.75,185.37Z" style="fill:#e0e0e0"></path><path d="M653.47,185.5a8.42,8.42,0,0,1-1.41-1.22c-.83-.79-2-1.89-3.18-3.13s-2.31-2.38-3.08-3.22a7.84,7.84,0,0,1-1.19-1.43,8,8,0,0,1,1.41,1.21c.83.79,2,1.9,3.18,3.14s2.32,2.39,3.09,3.23A7.51,7.51,0,0,1,653.47,185.5Z" style="fill:#e0e0e0"></path><path d="M702.75,236.6s0-.09,0-.25,0-.41,0-.72c0-.64,0-1.57,0-2.77,0-2.43,0-6-.05-10.47,0-9-.06-21.81-.1-37.16l.19.19-49.14,0h0l.21-.22c0,18.86,0,36.5,0,51.37l-.18-.19,35.58.1,10,.05,2.65,0h0l-2.61,0-10,.05-35.7.1h-.19v-.19c0-14.87,0-32.51,0-51.37V185h.22l49.14,0h.19v.19c0,15.4-.07,28.26-.1,37.28,0,4.48,0,8-.05,10.43,0,1.19,0,2.1,0,2.74,0,.29,0,.52,0,.69A1.85,1.85,0,0,1,702.75,236.6Z" style="fill:#e0e0e0"></path><path d="M683.73,221.75a31,31,0,0,0-4.52-10.13c-.79-1.15-1.82-2.34-3.21-2.45a3.23,3.23,0,0,0-2.73,1.43,6.07,6.07,0,0,0-1,3,8.63,8.63,0,0,0-7.72-.44c-2.39,1.2-3.83,4.34-2.63,6.73s4.25,3.09,6.9,3.52a3,3,0,0,0-.74,3.66,4.42,4.42,0,0,0,3.23,2.21,6.36,6.36,0,0,0,4-.39,23,23,0,0,0,8.39-7.17" style="fill:#f5f5f5"></path><path d="M693.24,223a5.08,5.08,0,0,1-1.06,0c-.68,0-1.66-.12-2.86-.24-2.41-.24-5.65-.66-9.39-1.34s-6.92-1.42-9.26-2c-1.17-.31-2.12-.58-2.77-.78a4.6,4.6,0,0,1-1-.36,4.8,4.8,0,0,1,1,.19l2.79.65c2.36.54,5.63,1.25,9.27,1.92s6.94,1.14,9.34,1.46l2.85.38A4.08,4.08,0,0,1,693.24,223Z" style="fill:#e0e0e0"></path><path d="M675.61,211.32a2.82,2.82,0,0,1,.4.67c.24.45.55,1.12.89,2a30,30,0,0,1,1.85,6.92l0,.17-.15.07-.59.25a35.87,35.87,0,0,0-6.51,3.75C670,226.24,669.06,227,669,227a2.9,2.9,0,0,1,.58-.63c.39-.37,1-.9,1.74-1.5a31,31,0,0,1,6.52-3.9l.59-.26-.13.24a36.12,36.12,0,0,0-1.69-6.88C676,212.36,675.55,211.35,675.61,211.32Z" style="fill:#e0e0e0"></path><path d="M669.72,214.19a11.1,11.1,0,0,1,1,1.58c.62,1,1.54,2.34,2.56,3.87l.18.26-.31.08-.61.14c-1.94.45-3.71.74-5,1a11.65,11.65,0,0,1-2.08.31,8.76,8.76,0,0,1,2-.61c1.26-.31,3-.66,5-1.1l.61-.14-.14.33c-1-1.52-1.89-2.91-2.45-3.95A7.35,7.35,0,0,1,669.72,214.19Z" style="fill:#e0e0e0"></path><path d="M687.83,208.79a30.8,30.8,0,0,0,3-10.67c.13-1.39.1-3-.9-3.94a3.16,3.16,0,0,0-3-.65,6.09,6.09,0,0,0-2.69,1.7,8.66,8.66,0,0,0-5.64-5.29c-2.61-.6-5.73.88-6.34,3.49s1.28,5.1,3.05,7.12a3,3,0,0,0-2.92,2.33,4.44,4.44,0,0,0,1.06,3.77,6.42,6.42,0,0,0,3.33,2.27,23.08,23.08,0,0,0,11-.13" style="fill:#f5f5f5"></path><path d="M687.83,195a2.79,2.79,0,0,1-.05.79c-.06.5-.19,1.22-.39,2.11a29.71,29.71,0,0,1-2.44,6.74l-.07.15-.17,0-.63-.13a35.46,35.46,0,0,0-7.48-.64c-1.93,0-3.12.18-3.13.11a3,3,0,0,1,.83-.19c.53-.08,1.31-.18,2.29-.23a30.32,30.32,0,0,1,7.58.52l.63.13-.24.11a36.11,36.11,0,0,0,2.54-6.61C687.57,196.12,687.76,195,687.83,195Z" style="fill:#e0e0e0"></path><path d="M681.68,193.17a7.64,7.64,0,0,1,.11,1.85c0,1.14,0,2.73,0,4.52v.28l-.28-.08-.51-.14c-1.83-.5-3.49-1-4.68-1.36a10.75,10.75,0,0,1-1.91-.68,9.11,9.11,0,0,1,2,.38c1.21.29,2.88.73,4.72,1.24l.51.14-.28.21c0-1.79.1-3.38.16-4.52A7.72,7.72,0,0,1,681.68,193.17Z" style="fill:#e0e0e0"></path><path d="M677.22,194.79s.12.08.33.27l.87.86a17.52,17.52,0,0,1,1.32,1.41c.51.56,1.08,1.21,1.65,2a58.81,58.81,0,0,1,3.85,5.46,76.29,76.29,0,0,1,3.91,7.17,74.55,74.55,0,0,1,3.07,7.58,58.24,58.24,0,0,1,1.78,6.43c.09.47.19.91.28,1.33s.12.82.18,1.2c.12.74.22,1.38.25,1.92s.07.89.1,1.22a2.26,2.26,0,0,1,0,.42,1.21,1.21,0,0,1-.09-.42q-.08-.48-.18-1.2c-.06-.53-.18-1.16-.32-1.9-.07-.37-.14-.77-.22-1.18l-.31-1.32a64.42,64.42,0,0,0-1.85-6.37c-.83-2.36-1.87-4.9-3.09-7.52s-2.57-5-3.86-7.15a65.22,65.22,0,0,0-3.74-5.47c-.56-.77-1.11-1.42-1.59-2s-.9-1.07-1.26-1.46l-.82-.91A1.76,1.76,0,0,1,677.22,194.79Z" style="fill:#e0e0e0"></path><rect x="651.34" y="71.25" width="68.26" height="71.16" style="fill:#e0e0e0"></rect><rect x="646.72" y="71.25" width="68.26" height="71.16" style="fill:#455a64"></rect><path d="M715,142.42H646.7V71.23H715Z" style="fill:#f5f5f5"></path><rect x="655.89" y="80.81" width="49.91" height="52.02" style="fill:#fafafa"></rect><path d="M655.89,133.18a7.76,7.76,0,0,1-1.23,1.43c-.8.85-1.92,2-3.17,3.22s-2.41,2.34-3.26,3.12a7.77,7.77,0,0,1-1.44,1.2,7.46,7.46,0,0,1,1.22-1.42c.8-.84,1.92-2,3.18-3.23s2.42-2.34,3.27-3.12A8.54,8.54,0,0,1,655.89,133.18Z" style="fill:#e0e0e0"></path><path d="M705.8,133.05a8.13,8.13,0,0,1,1.43,1.24c.84.79,2,1.91,3.22,3.17s2.34,2.41,3.12,3.26a7.77,7.77,0,0,1,1.2,1.44,8.54,8.54,0,0,1-1.42-1.22c-.85-.8-2-1.92-3.23-3.18s-2.34-2.42-3.12-3.27A7.29,7.29,0,0,1,705.8,133.05Z" style="fill:#e0e0e0"></path><path d="M705.66,81a8.71,8.71,0,0,1,1.24-1.43c.79-.84,1.91-2,3.17-3.22s2.41-2.34,3.26-3.12a8.33,8.33,0,0,1,1.44-1.2,8.81,8.81,0,0,1-1.22,1.43c-.8.84-1.92,2-3.18,3.22S708,79,707.1,79.75A7.29,7.29,0,0,1,705.66,81Z" style="fill:#e0e0e0"></path><path d="M655.76,81.08a8.54,8.54,0,0,1-1.44-1.23c-.84-.8-2-1.92-3.21-3.18s-2.34-2.41-3.12-3.26a7.77,7.77,0,0,1-1.2-1.44,8.37,8.37,0,0,1,1.42,1.23c.84.79,2,1.92,3.23,3.18s2.34,2.41,3.12,3.26A8.33,8.33,0,0,1,655.76,81.08Z" style="fill:#e0e0e0"></path><path d="M705.66,132.84s0-.09,0-.26,0-.41,0-.72c0-.66,0-1.59,0-2.81,0-2.47,0-6.05,0-10.6,0-9.12-.06-22.1-.1-37.64l.19.19L655.9,81h0l.22-.22c0,19.1,0,37,0,52l-.19-.19,36,.09,10.12,0,2.68,0,.69,0h-.65l-2.64,0-10.08.05-36.16.1h-.19v-.19c0-15.07,0-32.93,0-52v-.22h.23l49.76,0h.2v.19c0,15.59-.08,28.62-.1,37.76,0,4.53,0,8.1,0,10.56,0,1.2,0,2.13,0,2.77v.7A1.1,1.1,0,0,1,705.66,132.84Z" style="fill:#e0e0e0"></path><path d="M671.65,120.92a11,11,0,0,1-.49-14.52c1.38-1.59,3.23-2.75,4.51-4.43,2.78-3.63,2.74-9.34,6.62-11.77,2.82-1.78,6.88-.76,8.94,1.86a9.46,9.46,0,0,1,.89,9.48c-1,2.26-2.7,4.18-3.41,6.53s-.31,5.06-1.06,7.46c-.9,2.91-4,4.74-6.82,5.8a12.74,12.74,0,0,1-9.18-.41" style="fill:#f5f5f5"></path><path d="M685.68,97a8.33,8.33,0,0,1-.48,1.37c-.33.88-.86,2.13-1.55,3.66a102.16,102.16,0,0,1-13.77,22.22c-1.06,1.3-2,2.33-2.59,3a9.43,9.43,0,0,1-1,1,9.57,9.57,0,0,1,.88-1.16c.6-.72,1.44-1.78,2.47-3.09a125.09,125.09,0,0,0,7.47-10.71,124,124,0,0,0,6.27-11.46c.72-1.5,1.29-2.73,1.67-3.59A8.74,8.74,0,0,1,685.68,97Z" style="fill:#e0e0e0"></path><path d="M675.36,106a17.16,17.16,0,0,1,.4,2.63c.2,1.64.44,3.93.69,6.52l-.33-.17,1.08-.63c2.49-1.46,4.76-2.75,6.42-3.67a21.34,21.34,0,0,1,2.72-1.41,20.17,20.17,0,0,1-2.56,1.68c-1.62,1-3.86,2.33-6.36,3.79l-1.08.62-.3.18,0-.35c-.24-2.58-.43-4.88-.55-6.53A17.16,17.16,0,0,1,675.36,106Z" style="fill:#e0e0e0"></path><path d="M688.47,102.12a8.38,8.38,0,0,1-1.68.94c-1.07.53-2.55,1.24-4.19,2l-.52.24-.27.12,0-.29c-.26-1.66-.47-3.15-.6-4.22a8,8,0,0,1-.13-1.74,6.76,6.76,0,0,1,.43,1.69c.21,1.06.47,2.54.74,4.2l-.31-.17.51-.24c1.65-.75,3.15-1.41,4.25-1.86A8.48,8.48,0,0,1,688.47,102.12Z" style="fill:#e0e0e0"></path><rect x="651.34" y="275.63" width="68.26" height="71.16" style="fill:#e0e0e0"></rect><rect x="646.72" y="275.63" width="68.26" height="71.16" style="fill:#455a64"></rect><path d="M715,346.81H646.7v-71.2H715Z" style="fill:#f5f5f5"></path><rect x="655.89" y="285.2" width="49.91" height="52.02" style="fill:#fafafa"></rect><path d="M655.89,337.57a8.16,8.16,0,0,1-1.23,1.43c-.8.84-1.92,2-3.17,3.21s-2.41,2.34-3.26,3.12a8.16,8.16,0,0,1-1.44,1.21,7,7,0,0,1,1.22-1.43c.8-.84,1.92-2,3.18-3.22s2.42-2.35,3.27-3.13A7.58,7.58,0,0,1,655.89,337.57Z" style="fill:#e0e0e0"></path><path d="M705.8,337.44a7.76,7.76,0,0,1,1.43,1.23c.84.8,2,1.92,3.22,3.17s2.34,2.41,3.12,3.26a7.77,7.77,0,0,1,1.2,1.44,7.46,7.46,0,0,1-1.42-1.22c-.85-.8-2-1.92-3.23-3.18s-2.34-2.42-3.12-3.27A7.44,7.44,0,0,1,705.8,337.44Z" style="fill:#e0e0e0"></path><path d="M705.66,285.33a9.23,9.23,0,0,1,1.24-1.43c.79-.84,1.91-2,3.17-3.21s2.41-2.34,3.26-3.12a8.16,8.16,0,0,1,1.44-1.21,7.91,7.91,0,0,1-1.22,1.43c-.8.84-1.92,2-3.18,3.22s-2.42,2.35-3.27,3.13A7.42,7.42,0,0,1,705.66,285.33Z" style="fill:#e0e0e0"></path><path d="M655.76,285.46a8,8,0,0,1-1.44-1.23c-.84-.8-2-1.92-3.21-3.17s-2.34-2.41-3.12-3.26a7.26,7.26,0,0,1-1.2-1.45,8.37,8.37,0,0,1,1.42,1.23c.84.8,2,1.92,3.23,3.18s2.34,2.41,3.12,3.27A8.54,8.54,0,0,1,655.76,285.46Z" style="fill:#e0e0e0"></path><path d="M705.66,337.22s0-.09,0-.25,0-.42,0-.73c0-.65,0-1.59,0-2.81,0-2.46,0-6.05,0-10.6,0-9.11-.06-22.09-.1-37.63l.19.19-49.76,0h0l.22-.22c0,19.09,0,36.95,0,52l-.19-.19,36,.1,10.12.05,2.68,0h0l-2.64,0-10.08.05-36.16.1h-.19v-.19c0-15.07,0-32.93,0-52V285h.23l49.76,0h.2v.2c0,15.59-.08,28.61-.1,37.75,0,4.54,0,8.11,0,10.56,0,1.2,0,2.13,0,2.77V337A.94.94,0,0,1,705.66,337.22Z" style="fill:#e0e0e0"></path><path d="M671.65,325.31a11,11,0,0,1-.49-14.53c1.38-1.59,3.23-2.75,4.51-4.43,2.78-3.62,2.74-9.34,6.62-11.77,2.82-1.77,6.88-.76,8.94,1.86a9.48,9.48,0,0,1,.89,9.49c-1,2.25-2.7,4.17-3.41,6.53s-.31,5.05-1.06,7.46c-.9,2.9-4,4.74-6.82,5.79a12.79,12.79,0,0,1-9.18-.4" style="fill:#f5f5f5"></path><path d="M685.68,301.34a8.33,8.33,0,0,1-.48,1.37c-.33.88-.86,2.13-1.55,3.66a101.91,101.91,0,0,1-13.77,22.23c-1.06,1.29-2,2.32-2.59,3a10.36,10.36,0,0,1-1,1.05,8,8,0,0,1,.88-1.16c.6-.73,1.44-1.78,2.47-3.1a123.51,123.51,0,0,0,7.47-10.71,125.36,125.36,0,0,0,6.27-11.45c.72-1.51,1.29-2.74,1.67-3.59A9.31,9.31,0,0,1,685.68,301.34Z" style="fill:#e0e0e0"></path><path d="M675.36,310.36a16.59,16.59,0,0,1,.4,2.63c.2,1.64.44,3.93.69,6.51l-.33-.17,1.08-.63c2.49-1.45,4.76-2.75,6.42-3.67a18.89,18.89,0,0,1,2.72-1.4,21.61,21.61,0,0,1-2.56,1.68c-1.62,1-3.86,2.32-6.36,3.78l-1.08.63-.3.17,0-.34c-.24-2.59-.43-4.89-.55-6.54A17,17,0,0,1,675.36,310.36Z" style="fill:#e0e0e0"></path><path d="M688.47,306.51a9,9,0,0,1-1.68.94c-1.07.53-2.55,1.23-4.19,2l-.52.23-.27.12,0-.29c-.26-1.66-.47-3.15-.6-4.22a7.93,7.93,0,0,1-.13-1.73,6.76,6.76,0,0,1,.43,1.69c.21,1.05.47,2.53.74,4.19l-.31-.17.51-.23c1.65-.76,3.15-1.41,4.25-1.87A7.47,7.47,0,0,1,688.47,306.51Z" style="fill:#e0e0e0"></path><polygon points="216.59 59.22 216.59 82.67 250.88 82.67 288.71 82.67 288.71 59.22 216.59 59.22" style="fill:#f5f5f5"></polygon><polygon points="213.56 52.66 213.56 59.22 291.24 59.22 291.24 52.66 250.88 52.66 213.56 52.66" style="fill:#e0e0e0"></polygon><polygon points="252.4 82.67 288.71 82.67 288.71 59.22 291.24 59.22 291.24 52.66 250.88 52.66 250.88 58.62 252.4 82.67" style="fill:#e0e0e0"></polygon><rect x="226.68" y="63" width="14.63" height="3.53" style="fill:#e0e0e0"></rect><rect x="224.79" y="70.95" width="18.78" height="7.45" style="fill:#fff"></rect><polygon points="252.9 29.24 252.9 52.7 287.2 52.7 325.03 52.7 325.03 29.24 252.9 29.24" style="fill:#f5f5f5"></polygon><polygon points="249.88 22.69 249.88 29.24 327.55 29.24 327.55 22.69 287.2 22.69 249.88 22.69" style="fill:#e0e0e0"></polygon><polygon points="288.71 52.7 325.03 52.7 325.03 29.24 327.55 29.24 327.55 22.69 287.2 22.69 287.2 28.64 288.71 52.7" style="fill:#e0e0e0"></polygon><rect x="262.99" y="33.02" width="14.63" height="3.53" style="fill:#e0e0e0"></rect><rect x="261.11" y="40.97" width="18.78" height="7.45" style="fill:#fff"></rect><polygon points="309.26 59.22 309.26 82.67 343.55 82.67 381.38 82.67 381.38 59.22 309.26 59.22" style="fill:#f5f5f5"></polygon><polygon points="306.23 52.66 306.23 59.22 383.9 59.22 383.9 52.66 343.55 52.66 306.23 52.66" style="fill:#e0e0e0"></polygon><polygon points="345.07 82.67 381.38 82.67 381.38 59.22 383.9 59.22 383.9 52.66 343.55 52.66 343.55 58.62 345.07 82.67" style="fill:#e0e0e0"></polygon><rect x="319.34" y="63" width="14.63" height="3.53" style="fill:#e0e0e0"></rect><rect x="317.46" y="70.95" width="18.78" height="7.45" style="fill:#fff"></rect><rect x="24.93" y="101.53" width="99.39" height="164.52" style="fill:#e0e0e0"></rect><rect x="21.63" y="101.53" width="99.39" height="164.52" style="fill:#ebebeb"></rect><rect x="25.86" y="104.87" width="90.93" height="157.85" style="fill:#fafafa"></rect><rect x="43.17" y="125.38" width="55.91" height="116.83" style="fill:#ebebeb"></rect><path d="M43.17,200.87C43,190,52.85,179.3,63.66,177.78c5.15-.73,10.63.29,15.44-1.68,8.6-3.53,11.33-14.94,20-18.33l.4,84.44H43.17Z" style="fill:#e0e0e0"></path></g><g id="freepik--Wardrobe--inject-68"><path d="M331.83,390v23.06H375.2V390Zm28.88,7.89H345.93a1.88,1.88,0,0,1,0-3.75h14.78a1.88,1.88,0,0,1,0,3.75Z" style="fill:#263238"></path><rect x="329.42" y="383.9" width="47.64" height="6.1" style="fill:#263238"></rect><polygon points="371.26 383.9 377.06 388.97 377.06 383.9 371.26 383.9" style="fill:#455a64"></polygon><polygon points="329.42 388.97 336.37 383.9 329.42 383.9 329.42 388.97" style="fill:#455a64"></polygon><path d="M377.06,390c0,.15-10.65.22-23.77.17s-23.76-.2-23.76-.35,10.64-.22,23.76-.17S377.06,389.86,377.06,390Z" style="fill:#455a64"></path><path d="M474.5,121.05v23.07h43.36V121.05Zm28.88,7.89H488.59a1.88,1.88,0,0,1,0-3.75h14.79a1.88,1.88,0,0,1,0,3.75Z" style="fill:#263238"></path><rect x="472.08" y="114.95" width="47.64" height="6.1" style="fill:#263238"></rect><polygon points="513.93 114.95 519.72 120.02 519.72 114.95 513.93 114.95" style="fill:#455a64"></polygon><polygon points="472.08 120.02 479.03 114.95 472.08 114.95 472.08 120.02" style="fill:#455a64"></polygon><path d="M519.72,121.05c0,.15-10.64.22-23.76.18s-23.77-.21-23.77-.35,10.64-.22,23.77-.18S519.72,120.91,519.72,121.05Z" style="fill:#455a64"></path><path d="M550.2,121.05v23.07h43.37V121.05Zm28.88,7.89H564.3a1.88,1.88,0,1,1,0-3.75h14.78a1.88,1.88,0,0,1,0,3.75Z" style="fill:#263238"></path><rect x="547.79" y="114.95" width="47.64" height="6.1" style="fill:#263238"></rect><polygon points="589.63 114.95 595.42 120.02 595.42 114.95 589.63 114.95" style="fill:#455a64"></polygon><polygon points="547.79 120.02 554.74 114.95 547.79 114.95 547.79 120.02" style="fill:#455a64"></polygon><path d="M595.42,121.05c0,.15-10.64.22-23.76.18s-23.77-.21-23.77-.35,10.64-.22,23.77-.18S595.42,120.91,595.42,121.05Z" style="fill:#455a64"></path><path d="M174.3,305.62v34.16h64.23V305.62Zm42.77,11.68h-21.9a2.78,2.78,0,0,1,0-5.55h21.9a2.78,2.78,0,0,1,0,5.55Z" style="fill:#FF725E"></path><rect x="170.72" y="296.58" width="70.55" height="9.04" style="fill:#FF725E"></rect><polygon points="232.7 296.58 241.28 304.09 241.28 296.58 232.7 296.58" style="opacity:0.30000000000000004"></polygon><polygon points="170.72 304.09 181.02 296.58 170.72 296.58 170.72 304.09" style="opacity:0.30000000000000004"></polygon><path d="M241.28,305.62c0,.15-15.77.2-35.2.13s-35.2-.25-35.2-.39,15.76-.2,35.2-.13S241.28,305.48,241.28,305.62Z" style="fill:#263238"></path><rect x="455.23" y="218.93" width="150.41" height="8.15" style="fill:#e0e0e0"></rect><path d="M605.63,227.07s0-.17,0-.5,0-.85,0-1.51l-.05-6.13.08.08c-19.67.1-79.62.18-150.4.18h0l.26-.26v8.14l-.26-.26,106.56.11,32.07.08,8.71,0,2.28,0h.78s-.25,0-.75,0l-2.23,0-8.66,0-32,.08-106.75.1H455v-8.66h.26c70.78,0,130.73.07,150.4.18h.08v.08c0,2.77,0,4.81,0,6.17,0,.66,0,1.15,0,1.49S605.63,227.07,605.63,227.07Z" style="fill:#263238"></path><path d="M501.66,240.1h7.74a6,6,0,0,1,6,6V374.44a0,0,0,0,1,0,0H495.7a0,0,0,0,1,0,0V246.06A6,6,0,0,1,501.66,240.1Z" style="fill:#FF725E"></path><path d="M509.44,261.69a11.65,11.65,0,0,1-2,1.41c-1.43.94-3.12,2-5,3.24l-4.93,3.34a12,12,0,0,1-2.1,1.32,11.44,11.44,0,0,1,1.88-1.62c1.21-.94,2.92-2.18,4.86-3.47s3.76-2.38,5.1-3.12A10.6,10.6,0,0,1,509.44,261.69Z" style="fill:#fff"></path><path d="M507.23,248.18a47.14,47.14,0,0,1-5.39,4.37,44.78,44.78,0,0,1-5.7,3.95,46.08,46.08,0,0,1,5.39-4.37A44.78,44.78,0,0,1,507.23,248.18Z" style="fill:#fff"></path><path d="M514.38,281.82a18.13,18.13,0,0,1-2.46,2.11c-1.56,1.24-3.78,2.89-6.29,4.61s-4.86,3.18-6.58,4.19a18.4,18.4,0,0,1-2.85,1.52,22.67,22.67,0,0,1,2.66-1.83c1.66-1.09,4-2.6,6.47-4.31s4.75-3.32,6.37-4.47A21.73,21.73,0,0,1,514.38,281.82Z" style="fill:#fff"></path><path d="M513.3,302a101.87,101.87,0,0,1-8.21,6.3c-4.61,3.36-8.42,6-8.51,5.88a101.87,101.87,0,0,1,8.21-6.3A100.82,100.82,0,0,1,513.3,302Z" style="fill:#fff"></path><path d="M514.85,320a23.48,23.48,0,0,1-2.76,1.76c-1.72,1-4.07,2.54-6.59,4.3s-4.73,3.45-6.31,4.7a24.35,24.35,0,0,1-2.6,2,17.36,17.36,0,0,1,2.36-2.26,77.85,77.85,0,0,1,6.25-4.85c2.54-1.76,4.94-3.21,6.71-4.19A16.7,16.7,0,0,1,514.85,320Z" style="fill:#fff"></path><path d="M515.5,341.94a26.15,26.15,0,0,1-2.79,1.73c-1.74,1-4.12,2.49-6.7,4.18s-4.87,3.3-6.51,4.48a23.73,23.73,0,0,1-2.7,1.86,17.21,17.21,0,0,1,2.48-2.16c1.59-1.26,3.85-2.92,6.44-4.62s5-3.1,6.81-4.06A17.61,17.61,0,0,1,515.5,341.94Z" style="fill:#fff"></path><path d="M515.5,359.46a22.16,22.16,0,0,1-2.77,1.79c-1.73,1.06-4.12,2.51-6.7,4.21s-4.86,3.33-6.52,4.5a20.43,20.43,0,0,1-2.73,1.83,20,20,0,0,1,2.51-2.12c1.6-1.25,3.86-2.93,6.45-4.64s5-3.12,6.81-4.1A18.49,18.49,0,0,1,515.5,359.46Z" style="fill:#fff"></path><path d="M495.7,254a3.13,3.13,0,0,1,0,.51c0,.36,0,.86,0,1.51,0,1.35,0,3.31.05,5.83,0,5.08.05,12.43.08,21.54,0,18.28.05,43.67.08,72.17l-.26-.25h12.76l-.26.26c0-30.35.06-57.71.08-77.5,0-9.87.06-17.86.08-23.4,0-2.74,0-4.88.05-6.35,0-.71,0-1.26,0-1.65s0-.56,0-.56,0,.19,0,.56,0,.94,0,1.65c0,1.47,0,3.61.05,6.35,0,5.54.05,13.53.08,23.4,0,19.79.05,47.15.08,77.5v.27H495.45v-.26c0-28.5.06-53.89.08-72.17,0-9.11.06-16.46.08-21.54,0-2.52,0-4.48.05-5.83,0-.65,0-1.15,0-1.51S495.7,254,495.7,254Z" style="fill:#263238"></path><path d="M561.12,241.21h1.48a9.09,9.09,0,0,1,9.09,9.09V381.81a0,0,0,0,1,0,0H552a0,0,0,0,1,0,0V250.3A9.09,9.09,0,0,1,561.12,241.21Z" style="fill:#FF725E"></path><rect x="556.01" y="234.43" width="11.7" height="6.78" rx="3.13" style="fill:#455a64"></rect><path d="M571.69,265.89s0,.19,0,.55,0,.92,0,1.62c0,1.45,0,3.55,0,6.25,0,5.46.05,13.33.08,23.09,0,19.57,0,46.7.09,77v.26h-16.2v-.26c-.1-30.36-.13-57.5-.09-77,0-9.78.06-17.66.12-23.09,0-2.72.06-4.82.1-6.25,0-.71,0-1.26.08-1.63s0-.54,0-.54,0,.19,0,.56,0,.9,0,1.61c0,1.45,0,3.55,0,6.25,0,5.45,0,13.33,0,23.09.07,19.56.16,46.69.26,77l-.26-.26h15.68l-.26.26c0-30.34.06-57.47.08-77,0-9.76.06-17.63.08-23.09,0-2.7,0-4.8,0-6.25,0-.7,0-1.23,0-1.62S571.69,265.89,571.69,265.89Z" style="fill:#455a64"></path><path d="M562.26,218.61a60.4,60.4,0,0,1,.26,8,60.4,60.4,0,0,1-.26,8,62.52,62.52,0,0,1-.26-8A62.52,62.52,0,0,1,562.26,218.61Z" style="fill:#263238"></path><rect x="499.18" y="234.43" width="11.7" height="6.78" rx="3.13" style="fill:#455a64"></rect><path d="M505.44,218.61a62.52,62.52,0,0,1,.26,8,62.52,62.52,0,0,1-.26,8,60.4,60.4,0,0,1-.26-8A60.4,60.4,0,0,1,505.44,218.61Z" style="fill:#263238"></path><path d="M585.7,240.1h7.74a6,6,0,0,1,6,6V374.44a0,0,0,0,1,0,0H579.74a0,0,0,0,1,0,0V246.06A6,6,0,0,1,585.7,240.1Z" style="fill:#e0e0e0"></path><path d="M579.74,254a3.13,3.13,0,0,1,0,.51c0,.36,0,.86,0,1.51,0,1.35,0,3.31.05,5.83,0,5.08,0,12.43.08,21.54,0,18.28.05,43.67.08,72.17l-.25-.25H592.5l-.26.26c0-30.35.06-57.71.08-77.5,0-9.87.06-17.86.08-23.4,0-2.74,0-4.88.05-6.35,0-.71,0-1.26,0-1.65s0-.56,0-.56,0,.19,0,.56,0,.94,0,1.65c0,1.47,0,3.61.05,6.35,0,5.54,0,13.53.08,23.4,0,19.79.05,47.15.08,77.5v.27H579.49v-.26c0-28.5.06-53.89.08-72.17,0-9.11.06-16.46.08-21.54,0-2.52,0-4.48.05-5.83,0-.65,0-1.15,0-1.51S579.74,254,579.74,254Z" style="fill:#263238"></path><rect x="583.22" y="234.43" width="11.7" height="6.78" rx="3.13" style="fill:#455a64"></rect><path d="M589.48,218.61a62.52,62.52,0,0,1,.26,8,62.52,62.52,0,0,1-.26,8,60.4,60.4,0,0,1-.26-8A60.4,60.4,0,0,1,589.48,218.61Z" style="fill:#263238"></path><path d="M530.19,240.1h1.48a9.09,9.09,0,0,1,9.09,9.09v146.2a0,0,0,0,1,0,0H521.1a0,0,0,0,1,0,0V249.19A9.09,9.09,0,0,1,530.19,240.1Z" style="fill:#263238"></path><path d="M521.1,254a3.13,3.13,0,0,1,0,.51c0,.36,0,.86,0,1.51,0,1.35,0,3.31.05,5.83,0,5.08,0,12.43.08,21.54,0,18.28.05,43.67.08,72.17l-.26-.25h12.76l-.26.26c0-30.35,0-57.71.07-77.5,0-9.87.07-17.86.09-23.4,0-2.74,0-4.88,0-6.35,0-.71,0-1.26,0-1.65s0-.56,0-.56,0,.19,0,.56,0,.94,0,1.65c0,1.47,0,3.61.05,6.35,0,5.54,0,13.53.08,23.4,0,19.79.05,47.15.08,77.5v.27H520.84v-.26c0-28.5.07-53.89.09-72.17,0-9.11.06-16.46.08-21.54,0-2.52,0-4.48,0-5.83,0-.65,0-1.15,0-1.51A4.66,4.66,0,0,1,521.1,254Z" style="fill:#455a64"></path><rect x="524.58" y="234.43" width="11.7" height="6.78" rx="3.13" style="fill:#455a64"></rect><path d="M530.84,218.61a62.52,62.52,0,0,1,.26,8,62.52,62.52,0,0,1-.26,8,59.3,59.3,0,0,1-.27-8A59.3,59.3,0,0,1,530.84,218.61Z" style="fill:#263238"></path><rect x="138.34" y="84.02" width="12.6" height="395.35" style="fill:#455a64"></rect><rect x="372.84" y="-151.82" width="11.01" height="480" transform="translate(290.16 466.52) rotate(-90)" style="fill:#455a64"></rect><rect x="370.7" y="231.72" width="15.29" height="480" transform="translate(-93.38 850.07) rotate(-90)" style="fill:#455a64"></rect><rect x="280.58" y="84.02" width="12.6" height="395.35" style="fill:#455a64"></rect><rect x="443.16" y="84.02" width="12.6" height="395.35" style="fill:#455a64"></rect><rect x="605.75" y="84.02" width="12.6" height="395.35" style="fill:#455a64"></rect><rect x="144.64" y="413.06" width="138.95" height="58.66" style="fill:#455a64"></rect><rect x="290.83" y="413.06" width="321.22" height="58.66" style="fill:#455a64"></rect><rect x="286.88" y="90.32" width="158.59" height="63.58" style="fill:#455a64"></rect><rect x="449.46" y="145.29" width="162.58" height="8.62" style="fill:#455a64"></rect><rect x="449.46" y="201.82" width="162.58" height="8.62" style="fill:#455a64"></rect><rect x="144.64" y="145.29" width="153.46" height="8.62" style="fill:#455a64"></rect><rect x="144.64" y="213.33" width="145.4" height="8.62" style="fill:#455a64"></rect><rect x="144.64" y="276.91" width="145.4" height="8.62" style="fill:#455a64"></rect><rect x="144.64" y="340.49" width="145.4" height="8.62" style="fill:#455a64"></rect><rect x="527.43" y="93.56" width="6.66" height="57.11" style="fill:#455a64"></rect><path d="M443.16,145.29s0-.31,0-.9,0-1.46,0-2.59c0-2.29,0-5.66,0-10,0-8.72-.06-21.39-.1-37.29l.17.17-150.39.09h0l.26-.26c0,17.66,0,34.79,0,50.8l-.25-.26,107.62.12,31.42.07,8.43,0,2.18,0,.75,0h-.72l-2.15,0-8.38,0-31.35.07-107.8.12h-.25v-.25c0-16,0-33.14,0-50.8v-.26h.27l150.39.09h.18v.17c0,15.94-.08,28.65-.1,37.39,0,4.35,0,7.7,0,10l0,2.57C443.18,145,443.16,145.29,443.16,145.29Z" style="fill:#263238"></path><rect x="351.58" y="117.72" width="33.19" height="4.33" style="fill:#e0e0e0"></rect><path d="M283.6,468.48s0-.28,0-.8,0-1.32,0-2.34c0-2,0-5.07,0-9,0-7.83-.06-19.2-.1-33.46l.17.18-134.94.08h0l.26-.26c0,15.85,0,31.21,0,45.58l-.25-.25,96.55.11,28.19.07,7.57,0h2l.68,0H283l-1.93,0-7.52,0-28.13.07-96.72.12h-.26V422.64h.26l134.94.09h.18v.17c0,14.31-.07,25.71-.1,33.56,0,3.89,0,6.9,0,9,0,1,0,1.77,0,2.3S283.6,468.48,283.6,468.48Z" style="fill:#263238"></path><rect x="201.42" y="443.75" width="29.77" height="3.88" style="fill:#e0e0e0"></rect><path d="M443.16,468.48s0-.28,0-.8,0-1.3,0-2.31c0-2.05,0-5.06,0-9,0-7.8,0-19.17-.09-33.51l.16.17-150.28.09h0l.26-.26c0,15.77,0,31.1,0,45.58l-.25-.25,107.42.11,31.47.07,8.45,0h2.2l.75,0-.72,0h-2.16l-8.4,0-31.41.08-107.6.11h-.25v-.25c0-14.48,0-29.81,0-45.58v-.26h.27l150.28.1h.17v.16c0,14.38-.07,25.79-.09,33.61,0,3.89,0,6.88,0,8.92l0,2.29C443.17,468.23,443.16,468.48,443.16,468.48Z" style="fill:#263238"></path><rect x="351.65" y="443.75" width="33.16" height="3.88" style="fill:#e0e0e0"></rect><path d="M605.18,468.48s0-.28,0-.8,0-1.3,0-2.31c0-2.05,0-5.06,0-9,0-7.8-.05-19.17-.09-33.51l.16.17-150.28.09h0l.26-.26c0,15.77,0,31.1,0,45.58l-.25-.25,107.42.11,31.47.07,8.45,0h2.2l.75,0-.72,0H602.3l-8.4,0-31.41.08-107.6.11h-.25v-.25c0-14.48,0-29.81,0-45.58v-.26h.27l150.28.1h.17v.16c0,14.38-.07,25.79-.09,33.61,0,3.89,0,6.88,0,8.92,0,1,0,1.76,0,2.29S605.18,468.48,605.18,468.48Z" style="fill:#263238"></path><rect x="513.67" y="443.75" width="33.16" height="3.88" style="fill:#e0e0e0"></rect><rect x="167.53" y="190.75" width="96.43" height="11.15" rx="5.16" style="fill:#FF725E"></rect><rect x="167.53" y="201.9" width="96.43" height="11.15" rx="5.16" style="fill:#FF725E"></rect><rect x="167.53" y="190.75" width="96.43" height="11.15" rx="5.16" style="fill:#fff;opacity:0.4"></rect><rect x="170.72" y="179.72" width="96.43" height="11.15" rx="5.16" style="fill:#FF725E"></rect><rect x="170.72" y="179.72" width="96.43" height="11.15" rx="5.16" style="fill:#fff;opacity:0.7000000000000001"></rect><rect x="170.72" y="168.38" width="96.43" height="11.15" rx="5.16" style="fill:#FF725E"></rect><rect x="170.72" y="168.38" width="96.43" height="11.15" rx="5.16" style="fill:#fff;opacity:0.7000000000000001"></rect><path d="M190.31,183.8l-.23,0-.67,0-2.61.05h-1.9a2,2,0,0,1-1.78-1.38,2,2,0,0,1,1-2.38,2.71,2.71,0,0,1,1.45-.23H187l31.66-.08,31.65.08,9.6.08,2.61,0,.68,0,.23,0-.23,0-.68,0-2.61.05-9.6.08-31.65.08L187,180.27h-1.48a2.38,2.38,0,0,0-1.3.18,1.71,1.71,0,0,0-.86,2,1.75,1.75,0,0,0,1.53,1.23l1.88,0,2.61.05.67,0C190.24,183.78,190.31,183.79,190.31,183.8Z" style="fill:#263238"></path><rect x="472.27" y="190.08" width="96.43" height="11.15" rx="5.16" style="fill:#FF725E"></rect><rect x="472.27" y="190.08" width="96.43" height="11.15" rx="5.16" style="fill:#fff;opacity:0.7000000000000001"></rect><rect x="472.27" y="178.74" width="96.43" height="11.15" rx="5.16" style="fill:#FF725E"></rect><rect x="472.27" y="178.74" width="96.43" height="11.15" rx="5.16" style="fill:#fff;opacity:0.7000000000000001"></rect><path d="M491.86,194.15l-.23,0-.68,0-2.61.05-1.89,0a2,2,0,0,1-.8-3.76,2.82,2.82,0,0,1,1.45-.24h1.48l31.65-.07,31.66.07,9.6.09,2.61,0,.67,0c.16,0,.23,0,.23,0a.94.94,0,0,1-.23,0l-.67,0-2.61.05-9.6.08-31.66.08-31.65-.08H487.1a2.47,2.47,0,0,0-1.3.18,1.7,1.7,0,0,0,.67,3.22l1.87,0,2.61,0,.68,0A.6.6,0,0,1,491.86,194.15Z" style="fill:#263238"></path><rect x="478.37" y="167.84" width="66.37" height="11.15" rx="5.16" style="fill:#FF725E"></rect><rect x="478.37" y="156.5" width="66.37" height="11.15" rx="5.16" style="fill:#FF725E"></rect><path d="M491.86,171.91a2.69,2.69,0,0,1-.64.06l-1.82.05c-.4,0-.82,0-1.34,0a1.6,1.6,0,0,1-1.14-1.16A2.72,2.72,0,0,1,487,169a1.7,1.7,0,0,1,.69-.82,1.3,1.3,0,0,1,.58-.14h.52l22.12-.07L533,168l6.7.09,1.83,0a2.42,2.42,0,0,1,.63.05,3.15,3.15,0,0,1-.63,0l-1.83.05-6.7.08-22.13.08-22.12-.08h-.52a.8.8,0,0,0-.41.09,1.33,1.33,0,0,0-.56.65,2.43,2.43,0,0,0-.1,1.65,1.3,1.3,0,0,0,.9,1c.45,0,.91,0,1.3,0l1.82.05A4.6,4.6,0,0,1,491.86,171.91Z" style="fill:#263238"></path><rect x="168.96" y="134.58" width="96.43" height="11.15" rx="5.16" style="fill:#263238"></rect><rect x="168.96" y="123.24" width="96.43" height="11.15" rx="5.16" style="fill:#263238"></rect><path d="M188.55,138.66l-.23,0-.68,0-2.61,0h-1.89a2,2,0,0,1-1.79-1.38,2,2,0,0,1,1-2.38,2.71,2.71,0,0,1,1.45-.23h1.48l31.66-.08,31.66.08,9.59.08,2.61.05.68,0,.23,0a.72.72,0,0,1-.23,0l-.68,0-2.61.05-9.59.09-31.66.07-31.66-.07h-1.48a2.4,2.4,0,0,0-1.3.18,1.7,1.7,0,0,0-.85,2,1.73,1.73,0,0,0,1.52,1.22l1.88,0,2.61,0,.68,0Z" style="fill:#455a64"></path><rect x="169.47" y="112.71" width="56.58" height="11.15" rx="5.16" style="fill:#455a64"></rect><rect x="169.47" y="101.37" width="56.58" height="11.15" rx="5.16" style="fill:#455a64"></rect><path d="M181,116.78a1.8,1.8,0,0,1-.54,0l-1.57,0a11.16,11.16,0,0,1-1.16,0,1.44,1.44,0,0,1-.94-1.07,3.22,3.22,0,0,1-.06-1.61,2.17,2.17,0,0,1,.36-.83,1.05,1.05,0,0,1,.89-.48l19-.08,19,.08,5.76.08,1.57,0a3.43,3.43,0,0,1,.55,0,2,2,0,0,1-.55.06l-1.57.05-5.76.08-19,.08-19-.08c-.51-.05-.81.54-.93,1a3,3,0,0,0,0,1.45,1.23,1.23,0,0,0,.71.91c.36,0,.78,0,1.11,0l1.57,0A1.8,1.8,0,0,1,181,116.78Z" style="fill:#263238"></path><rect x="170.72" y="242.84" width="96.43" height="11.15" rx="5.16" style="fill:#e0e0e0"></rect><rect x="170.72" y="231.5" width="96.43" height="11.15" rx="5.16" style="fill:#e0e0e0"></rect><path d="M190.31,246.91s-.07,0-.23,0l-.67,0-2.61,0-1.9,0a2,2,0,0,1-.8-3.77,2.71,2.71,0,0,1,1.45-.23H187l31.66-.08,31.65.08,9.6.08,2.61.05.68,0a.6.6,0,0,1,.23,0,.72.72,0,0,1-.23,0l-.68,0-2.61,0-9.6.09-31.65.07L187,243.39h-1.48a2.47,2.47,0,0,0-1.3.18,1.72,1.72,0,0,0-.86,2,1.74,1.74,0,0,0,1.53,1.22l1.88,0,2.61.05.67,0C190.24,246.89,190.31,246.9,190.31,246.91Z" style="fill:#263238"></path><rect x="170.72" y="265.14" width="96.43" height="11.15" rx="5.16" style="fill:#f5f5f5"></rect><rect x="170.72" y="253.8" width="96.43" height="11.15" rx="5.16" style="fill:#f5f5f5"></rect><path d="M190.31,269.21s-.07,0-.23,0l-.67,0-2.61.05-1.9,0a2,2,0,0,1-.8-3.77,2.71,2.71,0,0,1,1.45-.23H187l31.66-.08,31.65.08,9.6.08,2.61.05.68,0a.6.6,0,0,1,.23,0l-.23,0-.68,0-2.61.05-9.6.09-31.65.07L187,265.69h-1.48a2.47,2.47,0,0,0-1.3.18,1.72,1.72,0,0,0-.86,2,1.74,1.74,0,0,0,1.53,1.22l1.88,0,2.61.05.67,0C190.24,269.19,190.31,269.2,190.31,269.21Z" style="fill:#263238"></path><rect x="198.84" y="365.47" width="38.05" height="56.96" rx="4.59" transform="translate(-176.83 610.47) rotate(-89.8)" style="fill:#FF725E"></rect><g style="opacity:0.4"><rect x="198.84" y="365.47" width="38.05" height="56.96" rx="4.59" transform="translate(-176.83 610.47) rotate(-89.8)"></rect></g><path d="M230.9,382a2.7,2.7,0,0,1,0-.73c0-.54.08-1.23.13-2.07a46,46,0,0,0,0-7.61,17.14,17.14,0,0,0-4.31-10.09,11.19,11.19,0,0,0-5.61-3.15,31.28,31.28,0,0,0-7.07-.63c-4.85,0-9.66.94-12.93,3.62a12.29,12.29,0,0,0-3.55,4.68,18.15,18.15,0,0,0-1.36,5,37.41,37.41,0,0,0,0,7.6c.06.84.11,1.53.16,2.07a2.53,2.53,0,0,1,0,.73,3.49,3.49,0,0,1-.15-.71c-.07-.47-.17-1.17-.28-2.07a34.15,34.15,0,0,1-.19-7.68,18.27,18.27,0,0,1,1.33-5.17,12.73,12.73,0,0,1,3.66-4.94,15.87,15.87,0,0,1,6.1-3,29.5,29.5,0,0,1,7.22-.83,31.35,31.35,0,0,1,7.23.66,11.72,11.72,0,0,1,5.89,3.36,17.42,17.42,0,0,1,4.34,10.46,40.1,40.1,0,0,1-.17,7.68c-.1.9-.19,1.6-.26,2.07A2.79,2.79,0,0,1,230.9,382Z" style="fill:#263238"></path><rect x="191.65" y="365.24" width="38.05" height="56.96" rx="4.59" transform="translate(-183.76 603.05) rotate(-89.8)" style="fill:#FF725E"></rect><path d="M234.51,412.83a6,6,0,0,0,1.77-.42,4.83,4.83,0,0,0,1.73-1.34,4.53,4.53,0,0,0,1-2.77c0-4.65,0-11.31,0-19.52v-6.46c0-1.12,0-2.31,0-3.42a4.28,4.28,0,0,0-1.57-2.87,4.58,4.58,0,0,0-3.28-1H222.3L186.85,375a4.28,4.28,0,0,0-3.64,2,4.19,4.19,0,0,0-.62,2c0,.77,0,1.53,0,2.29,0,3.06,0,6.08,0,9,0,5.93-.05,11.64-.08,17.09a6,6,0,0,0,.19,1.92,4.33,4.33,0,0,0,.93,1.61,4.25,4.25,0,0,0,3.28,1.41l7.51.05,13.47.08,19.52.18,5.31.08,1.38,0,.47,0-.47,0-1.38,0-5.31,0-19.52,0h-21a4.89,4.89,0,0,1-3.72-1.59,5,5,0,0,1-1.06-1.84,6.32,6.32,0,0,1-.22-2.1c0-5.45,0-11.17,0-17.1,0-3,0-6,0-9,0-.77,0-1.52,0-2.32a4.81,4.81,0,0,1,.73-2.35,4.93,4.93,0,0,1,4.2-2.34l35.45.15,8,0,3.81,0a5.16,5.16,0,0,1,3.63,1.11,4.85,4.85,0,0,1,1.75,3.25c.05,1.22,0,2.33,0,3.47q0,3.38,0,6.46c-.07,8.22-.13,14.88-.17,19.52a4.74,4.74,0,0,1-1.08,2.89,4.67,4.67,0,0,1-1.82,1.34A3.61,3.61,0,0,1,234.51,412.83Z" style="fill:#263238"></path><rect x="292.97" y="168.33" width="150.41" height="8.15" style="fill:#e0e0e0"></rect><path d="M443.37,176.48s0-.17,0-.51,0-.84,0-1.51c0-1.36,0-3.38,0-6.13l.08.08c-19.67.1-79.62.18-150.4.18h0l.26-.26v8.15l-.26-.26,106.56.11,32.07.08,8.72,0,2.27,0,.78,0-.75,0-2.23,0-8.66,0-32,.08L293,176.74h-.26v-8.67H293c70.78,0,130.73.08,150.4.18h.08v.08c0,2.77,0,4.81,0,6.18,0,.65,0,1.15,0,1.49S443.37,176.48,443.37,176.48Z" style="fill:#263238"></path><path d="M312.63,190.61h1.48a9.09,9.09,0,0,1,9.09,9.09V379.56a0,0,0,0,1,0,0H303.54a0,0,0,0,1,0,0V199.7A9.09,9.09,0,0,1,312.63,190.61Z" style="fill:#263238"></path><path d="M339.4,189.51h7.74a6,6,0,0,1,6,6V323.84a0,0,0,0,1,0,0H333.45a0,0,0,0,1,0,0V195.46A6,6,0,0,1,339.4,189.51Z" style="fill:#455a64"></path><rect x="307.52" y="183.83" width="11.7" height="6.78" rx="3.13" style="fill:#455a64"></rect><path d="M323.2,215.29s0,.19,0,.55,0,.93,0,1.63c0,1.44,0,3.55,0,6.25,0,5.45,0,13.33.08,23.09,0,19.56.05,46.69.09,77v.26h-16.2v-.26c-.1-30.35-.13-57.49-.09-77,0-9.78.06-17.65.12-23.09,0-2.71.06-4.82.1-6.25,0-.71.05-1.26.08-1.62s0-.55,0-.55,0,.2,0,.56,0,.9,0,1.62c0,1.44,0,3.54,0,6.24,0,5.46,0,13.33,0,23.09.07,19.56.16,46.69.26,77l-.26-.26H323.2l-.26.26c0-30.34.06-57.47.08-77,0-9.76.06-17.64.08-23.09,0-2.7,0-4.81,0-6.25,0-.7,0-1.24,0-1.63S323.2,215.29,323.2,215.29Z" style="fill:#455a64"></path><path d="M319.44,333.54a72.46,72.46,0,0,1-6.9,5.56,75.85,75.85,0,0,1-7.21,5.15,76.34,76.34,0,0,1,6.9-5.56A75.08,75.08,0,0,1,319.44,333.54Z" style="fill:#263238"></path><path d="M347.18,211.1a12.49,12.49,0,0,1-2,1.41l-5,3.24-4.93,3.33a13.49,13.49,0,0,1-2.1,1.33,10.39,10.39,0,0,1,1.88-1.62c1.21-.94,2.92-2.19,4.86-3.48s3.76-2.37,5.1-3.12A11.1,11.1,0,0,1,347.18,211.1Z" style="fill:#fff"></path><path d="M345,197.58a45.92,45.92,0,0,1-5.39,4.37,46.9,46.9,0,0,1-5.7,4,44.76,44.76,0,0,1,5.39-4.37A46.9,46.9,0,0,1,345,197.58Z" style="fill:#fff"></path><path d="M352.12,231.23a18.6,18.6,0,0,1-2.46,2.1c-1.56,1.24-3.78,2.89-6.29,4.61s-4.86,3.18-6.58,4.19a18.4,18.4,0,0,1-2.85,1.52,22.67,22.67,0,0,1,2.66-1.83c1.67-1.09,4-2.6,6.48-4.31s4.74-3.31,6.36-4.47A20.81,20.81,0,0,1,352.12,231.23Z" style="fill:#fff"></path><path d="M351,251.39c.08.11-3.59,2.93-8.21,6.29a98,98,0,0,1-8.51,5.88,101.87,101.87,0,0,1,8.21-6.3A99.16,99.16,0,0,1,351,251.39Z" style="fill:#fff"></path><path d="M352.59,269.37a23.79,23.79,0,0,1-2.75,1.76c-1.72,1.06-4.08,2.55-6.6,4.31s-4.73,3.45-6.31,4.7a26.19,26.19,0,0,1-2.6,2,16.78,16.78,0,0,1,2.37-2.27A76.74,76.74,0,0,1,343,275a74.88,74.88,0,0,1,6.7-4.19A18.34,18.34,0,0,1,352.59,269.37Z" style="fill:#fff"></path><path d="M353.24,291.34a25.06,25.06,0,0,1-2.79,1.74c-1.73,1-4.12,2.48-6.7,4.17s-4.86,3.3-6.51,4.48a23.73,23.73,0,0,1-2.7,1.86,18.44,18.44,0,0,1,2.48-2.15c1.59-1.26,3.85-2.93,6.44-4.63s5-3.1,6.81-4.05A17.69,17.69,0,0,1,353.24,291.34Z" style="fill:#fff"></path><path d="M353.24,308.87a23.28,23.28,0,0,1-2.76,1.78c-1.73,1.06-4.13,2.52-6.71,4.22s-4.86,3.32-6.52,4.5a21.75,21.75,0,0,1-2.73,1.83,18.56,18.56,0,0,1,2.51-2.13c1.61-1.25,3.86-2.93,6.46-4.64s5-3.12,6.8-4.09A18.49,18.49,0,0,1,353.24,308.87Z" style="fill:#fff"></path><path d="M333.45,203.38s0,.17,0,.51,0,.86,0,1.51c0,1.35,0,3.3,0,5.82,0,5.09,0,12.43.08,21.55,0,18.28.05,43.66.09,72.17l-.26-.26H346.2l-.26.26c0-30.35.06-57.71.08-77.5,0-9.88.06-17.86.08-23.4,0-2.75,0-4.88,0-6.36,0-.71,0-1.26,0-1.65s0-.56,0-.56,0,.19,0,.56,0,.94,0,1.65c0,1.48,0,3.61.05,6.36,0,5.54.05,13.52.08,23.4,0,19.79.05,47.15.08,77.5v.26H333.19v-.26c0-28.51.06-53.89.08-72.17,0-9.12.06-16.46.08-21.55,0-2.52,0-4.47,0-5.82l0-1.51A3.13,3.13,0,0,1,333.45,203.38Z" style="fill:#263238"></path><path d="M313.77,168a60.52,60.52,0,0,1,.26,8,60.62,60.62,0,0,1-.26,8,62.75,62.75,0,0,1-.26-8A62.65,62.65,0,0,1,313.77,168Z" style="fill:#263238"></path><path d="M398.86,190.61h1.48a9.09,9.09,0,0,1,9.09,9.09V379.56a0,0,0,0,1,0,0H389.77a0,0,0,0,1,0,0V199.7A9.09,9.09,0,0,1,398.86,190.61Z" style="fill:#e0e0e0"></path><rect x="393.75" y="183.83" width="11.7" height="6.78" rx="3.13" style="fill:#455a64"></rect><path d="M409.43,215.29s0,.19,0,.55,0,.93,0,1.63c0,1.44,0,3.55,0,6.25,0,5.45,0,13.33.08,23.09,0,19.56.05,46.69.08,77v.26h-16.2v-.26c-.1-30.35-.13-57.49-.09-77,0-9.78.06-17.65.12-23.09,0-2.71.07-4.82.11-6.25,0-.71,0-1.26.07-1.62s.05-.55.05-.55,0,.2,0,.56,0,.9,0,1.62c0,1.44,0,3.54,0,6.24,0,5.46,0,13.33.05,23.09.06,19.56.15,46.69.25,77l-.26-.26h15.68l-.26.26c0-30.34.06-57.47.08-77,0-9.76.06-17.64.08-23.09,0-2.7,0-4.81.05-6.25,0-.7,0-1.24,0-1.63S409.43,215.29,409.43,215.29Z" style="fill:#263238"></path><path d="M400,168a62.65,62.65,0,0,1,.26,8,62.75,62.75,0,0,1-.26,8,59.51,59.51,0,0,1-.27-8A59.42,59.42,0,0,1,400,168Z" style="fill:#263238"></path><rect x="336.92" y="183.83" width="11.7" height="6.78" rx="3.13" style="fill:#455a64"></rect><path d="M343.18,168a62.65,62.65,0,0,1,.26,8,62.75,62.75,0,0,1-.26,8,60.62,60.62,0,0,1-.26-8A60.52,60.52,0,0,1,343.18,168Z" style="fill:#263238"></path><path d="M423.44,189.51h7.74a6,6,0,0,1,6,6V323.84a0,0,0,0,1,0,0H417.49a0,0,0,0,1,0,0V195.46A6,6,0,0,1,423.44,189.51Z" style="fill:#e0e0e0"></path><path d="M431.22,211.1a12.49,12.49,0,0,1-2,1.41l-5,3.24-4.93,3.33a13.49,13.49,0,0,1-2.1,1.33,10.39,10.39,0,0,1,1.88-1.62c1.21-.94,2.92-2.19,4.86-3.48s3.76-2.37,5.1-3.12A11.1,11.1,0,0,1,431.22,211.1Z" style="fill:#fff"></path><path d="M429,197.58a45.92,45.92,0,0,1-5.39,4.37,46.9,46.9,0,0,1-5.7,4,44.76,44.76,0,0,1,5.39-4.37A46.9,46.9,0,0,1,429,197.58Z" style="fill:#fff"></path><path d="M436.16,231.23a18.6,18.6,0,0,1-2.46,2.1c-1.56,1.24-3.78,2.89-6.29,4.61s-4.86,3.18-6.58,4.19a18.4,18.4,0,0,1-2.85,1.52,22.67,22.67,0,0,1,2.66-1.83c1.67-1.09,4-2.6,6.48-4.31s4.74-3.31,6.36-4.47A20.81,20.81,0,0,1,436.16,231.23Z" style="fill:#fff"></path><path d="M435.08,251.39c.08.11-3.59,2.93-8.21,6.29a98,98,0,0,1-8.51,5.88,101.87,101.87,0,0,1,8.21-6.3A99.16,99.16,0,0,1,435.08,251.39Z" style="fill:#fff"></path><path d="M436.63,269.37a23.79,23.79,0,0,1-2.75,1.76c-1.72,1.06-4.08,2.55-6.6,4.31s-4.73,3.45-6.31,4.7a26.19,26.19,0,0,1-2.6,2,16.78,16.78,0,0,1,2.37-2.27A76.74,76.74,0,0,1,427,275a74.88,74.88,0,0,1,6.7-4.19A18.34,18.34,0,0,1,436.63,269.37Z" style="fill:#fff"></path><path d="M437.28,291.34a25.06,25.06,0,0,1-2.79,1.74c-1.73,1-4.12,2.48-6.7,4.17s-4.86,3.3-6.51,4.48a23.73,23.73,0,0,1-2.7,1.86,18.44,18.44,0,0,1,2.48-2.15c1.59-1.26,3.85-2.93,6.44-4.63s5-3.1,6.81-4.05A17.69,17.69,0,0,1,437.28,291.34Z" style="fill:#fff"></path><path d="M437.28,308.87a23.28,23.28,0,0,1-2.76,1.78c-1.73,1.06-4.13,2.52-6.71,4.22s-4.86,3.32-6.52,4.5a21.75,21.75,0,0,1-2.73,1.83,18.56,18.56,0,0,1,2.51-2.13c1.61-1.25,3.86-2.93,6.46-4.64s5-3.12,6.8-4.09A18.49,18.49,0,0,1,437.28,308.87Z" style="fill:#fff"></path><path d="M417.49,203.38s0,.17,0,.51l0,1.51c0,1.35,0,3.3,0,5.82,0,5.09.05,12.43.08,21.55,0,18.28,0,43.66.09,72.17l-.26-.26h12.75l-.26.26c0-30.35.06-57.71.08-77.5,0-9.88.06-17.86.08-23.4,0-2.75,0-4.88.05-6.36,0-.71,0-1.26,0-1.65s0-.56,0-.56,0,.19,0,.56,0,.94,0,1.65c0,1.48,0,3.61,0,6.36,0,5.54.05,13.52.08,23.4,0,19.79.05,47.15.08,77.5v.26H417.23v-.26c0-28.51.06-53.89.08-72.17,0-9.12.06-16.46.08-21.55,0-2.52,0-4.47.05-5.82,0-.65,0-1.15,0-1.51A3.13,3.13,0,0,1,417.49,203.38Z" style="fill:#263238"></path><rect x="420.96" y="183.83" width="11.7" height="6.78" rx="3.13" style="fill:#455a64"></rect><path d="M427.22,168a62.65,62.65,0,0,1,.26,8,62.75,62.75,0,0,1-.26,8,60.62,60.62,0,0,1-.26-8A60.52,60.52,0,0,1,427.22,168Z" style="fill:#263238"></path><path d="M367.94,189.51h1.48a9.09,9.09,0,0,1,9.09,9.09V344.8a0,0,0,0,1,0,0H358.84a0,0,0,0,1,0,0V198.6A9.09,9.09,0,0,1,367.94,189.51Z" style="fill:#455a64"></path><path d="M358.84,203.38a3.13,3.13,0,0,1,0,.51c0,.36,0,.86,0,1.51,0,1.35,0,3.3.05,5.82,0,5.09.05,12.43.08,21.55,0,18.28.05,43.66.08,72.17l-.26-.26H371.6l-.26.26c0-30.35.06-57.71.08-77.5,0-9.88.06-17.86.08-23.4,0-2.75,0-4.88.05-6.36,0-.71,0-1.26,0-1.65s0-.56,0-.56,0,.19,0,.56,0,.94,0,1.65c0,1.48,0,3.61.05,6.36,0,5.54.05,13.52.08,23.4,0,19.79.05,47.15.08,77.5v.26H358.59v-.26c0-28.51.06-53.89.08-72.17,0-9.12.06-16.46.08-21.55,0-2.52,0-4.47.05-5.82l0-1.51C358.83,203.55,358.84,203.37,358.84,203.38Z" style="fill:#455a64"></path><rect x="362.32" y="183.83" width="11.7" height="6.78" rx="3.13" style="fill:#455a64"></rect><path d="M368.58,168a62.65,62.65,0,0,1,.26,8,62.75,62.75,0,0,1-.26,8,60.62,60.62,0,0,1-.26-8A60.52,60.52,0,0,1,368.58,168Z" style="fill:#263238"></path></g><g id="freepik--Screen--inject-68"><path d="M711,480c0,.14-150.45.26-336,.26S39,480.11,39,480s150.41-.26,336-.26S711,479.83,711,480Z" style="fill:#263238"></path></g><g id="freepik--Mirror--inject-68"><path d="M458.64,296.93l.21.91c.13.62.32,1.52.56,2.7.5,2.38,1.22,5.89,2.16,10.41,1.85,9.08,4.54,22.24,7.89,38.64L495.9,479.92l-.25-.21h54.67l-.25.31c-9.6-53.14-18.1-100.25-24.22-134.1-3-16.92-5.47-30.52-7.15-39.9-.83-4.68-1.47-8.31-1.9-10.78-.21-1.22-.38-2.15-.49-2.79s-.14-.95-.14-.95.07.31.19.94l.53,2.79c.46,2.46,1.13,6.08,2,10.75,1.72,9.38,4.21,23,7.3,39.87,6.16,33.85,14.73,80.95,24.39,134.07l0,.31H495.44l-.05-.21c-10.43-51.77-19.65-97.53-26.27-130.36-3.28-16.41-5.92-29.59-7.74-38.67-.89-4.53-1.59-8-2.06-10.43l-.52-2.71C458.68,297.24,458.64,296.93,458.64,296.93Z" style="fill:#263238"></path><polygon points="462.29 221.3 438.83 479.9 499.57 479.9 521.69 221.3 462.29 221.3" style="fill:#f5f5f5"></polygon><path d="M487.71,252.43c-3.84-3.78-12.07-2.82-16.37.43s-6.54,8.61-7.45,13.92-.69,10.75-1.13,16.13-1.64,10.9-5,15.15c-1.42,1.81-.89,3.87-1.24,6.14A105.05,105.05,0,0,0,455.43,317c0,4.37,4.26,4.8,8.56,4,4.46-.85,7.89-4.65,9.59-8.85s2-8.83,2.34-13.36a368.07,368.07,0,0,1,5.67-42" style="fill:#263238"></path><path d="M492.41,294l-4-1.09h-17.6l-9.55,5.64S478,306,484.14,303a17.4,17.4,0,0,0,8.27-8.55" style="fill:#c69481"></path><path d="M470.78,268.69l0-1.23a9.39,9.39,0,0,1,7.35-9.41l6.51-1.45c4.34-.59,9.2,3.63,9.61,8,.45,4.85.82,10.8.36,14.44-.93,7.33-6.5,8.43-6.5,8.43l-.59,16-16.12.7Z" style="fill:#c69481"></path><path d="M491.39,270.08a.92.92,0,0,1-.87,1,.9.9,0,0,1-1-.81,1,1,0,0,1,.87-1A.9.9,0,0,1,491.39,270.08Z" style="fill:#263238"></path><path d="M492.77,267.2c-.11.12-.84-.38-1.84-.34s-1.73.56-1.84.44.05-.28.37-.52a2.54,2.54,0,0,1,1.47-.51,2.49,2.49,0,0,1,1.47.43C492.71,266.93,492.83,267.14,492.77,267.2Z" style="fill:#263238"></path><path d="M481.33,270.45a.94.94,0,0,1-.87,1,.9.9,0,0,1-1-.81.94.94,0,0,1,.88-1A.89.89,0,0,1,481.33,270.45Z" style="fill:#263238"></path><path d="M482.88,267.72c-.11.13-.84-.38-1.84-.34s-1.73.56-1.85.44.06-.28.38-.52a2.54,2.54,0,0,1,2.94-.08C482.82,267.45,482.94,267.66,482.88,267.72Z" style="fill:#263238"></path><path d="M486.77,275.59a7.08,7.08,0,0,1,1.62-.34c.26,0,.5-.09.54-.27a1.32,1.32,0,0,0-.2-.76c-.26-.61-.53-1.26-.82-1.93a32.36,32.36,0,0,1-1.86-5.07,35.09,35.09,0,0,1,2.27,4.91l.78,1.94a1.48,1.48,0,0,1,.17,1,.66.66,0,0,1-.41.39,2,2,0,0,1-.44.07A6,6,0,0,1,486.77,275.59Z" style="fill:#263238"></path><path d="M488.08,287.49a19.22,19.22,0,0,1-10.1-2.31s2.47,5.05,10,4.15Z" style="fill:#936457"></path><path d="M486.42,278a1.83,1.83,0,0,0-1.65-.62,1.68,1.68,0,0,0-1.13.65,1.06,1.06,0,0,0,0,1.2,1.21,1.21,0,0,0,1.33.3,4,4,0,0,0,1.26-.81,1,1,0,0,0,.28-.31.31.31,0,0,0,0-.37" style="fill:#936457"></path><path d="M483.82,276.38c.17,0,.2,1.08,1.16,1.83s2.12.59,2.14.74-.26.22-.75.25a2.73,2.73,0,0,1-1.78-.56,2.38,2.38,0,0,1-.9-1.53C483.64,276.65,483.75,276.38,483.82,276.38Z" style="fill:#263238"></path><path d="M483,264.68c-.09.28-1.1.18-2.28.36s-2.12.53-2.28.29.08-.38.46-.66a4,4,0,0,1,3.47-.49C482.83,264.34,483.06,264.55,483,264.68Z" style="fill:#263238"></path><path d="M492.63,263.74c-.17.24-.87,0-1.7,0s-1.54.2-1.71,0,0-.35.33-.58a2.51,2.51,0,0,1,2.75,0C492.6,263.4,492.71,263.63,492.63,263.74Z" style="fill:#263238"></path><path d="M495.51,256.55c-.94-3-6.72-6.65-12.84-3.9a12,12,0,0,0-8.54,3.28c-5.4,4.94-3.34,17-3.34,17a27.36,27.36,0,0,0,8.63-7c3.47-4.19,5.38-7.47,6.06-9.45h0c5.64,1.36,7.78,6.3,8.77,8.43C495.53,263.52,497.16,261.79,495.51,256.55Z" style="fill:#263238"></path><path d="M472,272.2c-.11-.06-4.81-1.64-4.86,3.21s4.84,3.9,4.85,3.76S472,272.2,472,272.2Z" style="fill:#c69481"></path><path d="M470.52,277.32s-.09.06-.23.12a.79.79,0,0,1-.63,0,2.08,2.08,0,0,1-1-1.89,2.78,2.78,0,0,1,.24-1.21,1,1,0,0,1,.65-.64.42.42,0,0,1,.49.24c.07.13,0,.23.06.24s.11-.08.07-.28a.58.58,0,0,0-.19-.31.72.72,0,0,0-.47-.13,1.23,1.23,0,0,0-.89.75,2.92,2.92,0,0,0-.3,1.35,2.19,2.19,0,0,0,1.21,2.11.94.94,0,0,0,.78-.12C470.51,277.44,470.53,277.33,470.52,277.32Z" style="fill:#936457"></path><path d="M479,289.88s-11.28,5.41-11.75,6.11-8.7,16-8.7,16l-.22,2.51a89.52,89.52,0,0,1,3.78,11.3c0,.11.05.22.08.34A20.35,20.35,0,0,1,458.89,342L455,347.48,452,385.57l-.82,9.79,29.11,11.37s5.81-15.28,7-21.4S491,350.6,491,350.6s.69-9.8,1.87-14.5,8.74-18,6.16-24.13-2.82-15.27-6.35-18.33S479,289.88,479,289.88Z" style="fill:#FF725E"></path><g style="opacity:0.30000000000000004"><path d="M475.42,342.65c-.08,1.35,1.21,2.34,1.73,3.58s.2,2.84.54,4.22c.44,1.78,1.93,3.08,3.42,4.15s3.1,2.11,4,3.7c.47.83.91,1.91,1.86,2s1.56-1,1.9-1.95a6.07,6.07,0,0,0,.54-3.38,4.77,4.77,0,0,0-2.22-2.73c-2.7-1.78-6.29-2.51-8-5.24-.53-.84-.83-1.8-1.34-2.66a3.18,3.18,0,0,0-2.3-1.71"></path></g><path d="M474.81,340.68s-.06,2.63,1.12,3.48a32.52,32.52,0,0,1,2.56,2s-.47,2,1.77,4.39a11.05,11.05,0,0,0,5.54,2.9s.55,7,1.65,5.68a8,8,0,0,0,1.46-3.29,1.86,1.86,0,0,0,2-1.29l.37-1.46s2.74-2,2.1-3.65a47,47,0,0,1-1.37-5.15s1.7,3.86,2.07,2.4a5.88,5.88,0,0,0,0-2.76l-4.45-1.83-11,.69Z" style="fill:#c69481"></path><path d="M475.93,304.59S473,316.69,473.34,320c.28,2.47,4,17.8,5.89,25.34a4.6,4.6,0,0,0,5.82,3.31,6.69,6.69,0,0,0,3.31-1.9,5.72,5.72,0,0,0,1.29-4.58L488.73,320l.18-3.66,4.22-4.35s3.84-13.06-2-16S478.7,296.9,475.93,304.59Z" style="fill:#FF725E"></path><path d="M478.9,343.49c-1-8.87-6.18-17.13-5.74-26.06" style="fill:#FF725E"></path><path d="M453.91,396.44c-.25,1.2-4.84,29.87-4.84,29.87L444,475.94s10.92.66,10.92,0,8.29-36.05,10.55-40.21,3-4.15,4.14-7.54,10.66-21.46,10.66-21.46Z" style="fill:#c69481"></path><path d="M469.45,279.5c1.17,3.92,4.87,6.57,8.67,8.08s7.91,2.21,11.63,3.92,7.18,4.8,7.73,8.86a1.58,1.58,0,0,1-.4,1.52,1.22,1.22,0,0,1-1.53-.31,4.82,4.82,0,0,1-.76-1.52c-1.62-4.06-6.14-6.33-10.49-6.71s-8.68.75-13,1.6c-2,.39-4.3.65-5.85-.66s-1.67-3.28-1.81-5.15a12.9,12.9,0,0,1,.35-5.29,4.34,4.34,0,0,1,3.92-3.08" style="fill:#263238"></path><path d="M461.22,292.67a59.16,59.16,0,0,1-3.37,14.62c-1,2.73-2.24,5.44-2.43,8.35s.94,6.12,3.54,7.43c3,1.49,6.61,0,9-2.24a22.58,22.58,0,0,0,6.33-11.78c1-4.42,1.32-14.65,1.42-19.17" style="fill:#263238"></path><path d="M473.16,317.43c.19-3.95,1.49-7.75,2.77-11.49,1-3,2.09-6.05,4.19-8.39s5.52-3.81,8.46-2.69" style="fill:#FF725E"></path><path d="M463.24,385.85a11.84,11.84,0,0,1-1.5-2.24c-.85-1.43-1.95-3.45-3-5.75s-1.95-4.42-2.51-6a11.93,11.93,0,0,1-.79-2.57,15.77,15.77,0,0,1,1.13,2.44c.65,1.52,1.57,3.62,2.65,5.9s2.12,4.32,2.88,5.79A16,16,0,0,1,463.24,385.85Z" style="fill:#263238"></path><path d="M488.57,322.27a18.14,18.14,0,0,1-.29-2.43,11.32,11.32,0,0,0-.59-2.52,5.91,5.91,0,0,0-1.77-2.52,5.09,5.09,0,0,0-2.87-1,8.27,8.27,0,0,0-2.55.28c-1.44.4-2.29.81-2.32.73a6.59,6.59,0,0,1,2.21-1.08,7.65,7.65,0,0,1,2.69-.41,5.49,5.49,0,0,1,3.17,1.09,6.16,6.16,0,0,1,1.89,2.76,10.46,10.46,0,0,1,.51,2.66A8.45,8.45,0,0,1,488.57,322.27Z" style="fill:#263238"></path><path d="M495.29,311.07a1.24,1.24,0,0,0-1.09.07,7,7,0,0,0-1,.87l-1.2,1.15a18.17,18.17,0,0,1-3.31,2.73,17.31,17.31,0,0,1,2.95-3.11l1.24-1.12a4.68,4.68,0,0,1,1.12-.84,1.15,1.15,0,0,1,1,0C495.26,310.91,495.31,311.05,495.29,311.07Z" style="fill:#263238"></path><path d="M489.71,343.28a6.17,6.17,0,0,1,0-1.22c0-.88,0-2,.07-3.29,0-2.78,0-6.62-.26-10.86s-.61-8.07-.89-10.84l-.33-3.28a6.12,6.12,0,0,1-.06-1.21,5,5,0,0,1,.26,1.19c.14.76.31,1.88.49,3.26.38,2.76.8,6.6,1,10.85a104.18,104.18,0,0,1,.1,10.9c-.06,1.39-.14,2.52-.23,3.3A5.12,5.12,0,0,1,489.71,343.28Z" style="fill:#263238"></path><path d="M488.92,294.78a9.84,9.84,0,0,0-2.31-.19,9.32,9.32,0,0,0-5.64,2.55,17.5,17.5,0,0,0-4.7,8c-.53,1.69-.95,3.52-1.37,5.42a58.57,58.57,0,0,0-1.09,5.89,30.16,30.16,0,0,0,1.12,11.41c.91,3.44,1.73,6.55,2.42,9.18s1.2,4.67,1.6,6.2c.16.69.3,1.25.41,1.69a2.71,2.71,0,0,1,.1.6,2.93,2.93,0,0,1-.21-.57c-.13-.43-.29-1-.5-1.67-.43-1.52-1-3.6-1.75-6.15s-1.59-5.73-2.53-9.16a29.93,29.93,0,0,1-1.18-11.59,58.7,58.7,0,0,1,1.11-5.95c.43-1.89.86-3.73,1.41-5.44a17.75,17.75,0,0,1,4.91-8.13,9.3,9.3,0,0,1,5.88-2.47,5.56,5.56,0,0,1,1.74.19A2.29,2.29,0,0,1,488.92,294.78Z" style="fill:#263238"></path><g style="opacity:0.30000000000000004"><path d="M493.65,311.74a15,15,0,0,0-4.93,4.15l1.36,21.38c1.57-2.65,1.23-6,.79-9s-.92-6.33.46-9.09c.61-1.23,1.56-2.27,2.2-3.49A3.93,3.93,0,0,0,493.65,311.74Z"></path></g><g style="opacity:0.30000000000000004"><path d="M455.4,369.42c0,.11.18,7.2,1.32,10.5s3.85,5.5,6.72,7.27c-2.37-5.94-5.44-11.54-8-17.77"></path></g><path d="M474.23,394.72c-.11.09-.87-.66-1.68-1.68s-1.39-1.92-1.28-2,.87.67,1.68,1.68S474.34,394.63,474.23,394.72Z" style="fill:#fff"></path><path d="M481.46,380.3a9.66,9.66,0,0,1-1.83,2.57,9.85,9.85,0,0,1-2.23,2.23,19,19,0,0,1,4.06-4.8Z" style="fill:#fff"></path><path d="M469.71,377.69a13.35,13.35,0,0,1-2.08-3.1,13.69,13.69,0,0,1-1.62-3.35,12.88,12.88,0,0,1,2.08,3.09A13.66,13.66,0,0,1,469.71,377.69Z" style="fill:#fff"></path><path d="M479.8,363.52a7.15,7.15,0,0,1-3.26-.78,7,7,0,0,1-2.83-1.81,27.33,27.33,0,0,1,3,1.33A24.38,24.38,0,0,1,479.8,363.52Z" style="fill:#fff"></path><path d="M465.06,357.46c.08.13-.95.93-2.12,2a14.76,14.76,0,0,1-2.17,2,6.1,6.1,0,0,1,1.81-2.36A6,6,0,0,1,465.06,357.46Z" style="fill:#fff"></path><path d="M464.51,346.21a9.6,9.6,0,0,1-2.63,1.73,10,10,0,0,1-2.88,1.27,9.6,9.6,0,0,1,2.63-1.73A10.09,10.09,0,0,1,464.51,346.21Z" style="fill:#fff"></path><path d="M473.78,350.76a12.8,12.8,0,0,1-1.57-3.21,12.63,12.63,0,0,1-1.08-3.4,12.58,12.58,0,0,1,1.57,3.21A12.11,12.11,0,0,1,473.78,350.76Z" style="fill:#fff"></path><path d="M456.21,391.92a10.35,10.35,0,0,1-.18-4.61,5.44,5.44,0,0,1,.35,2.3A5.36,5.36,0,0,1,456.21,391.92Z" style="fill:#fff"></path><path d="M485.84,371.44a26.13,26.13,0,0,1,.31-4.34,27.08,27.08,0,0,1,.5-4.32,14,14,0,0,1,0,4.37A14.53,14.53,0,0,1,485.84,371.44Z" style="fill:#fff"></path><path d="M470.57,336.4a10.33,10.33,0,0,1-2.94,1.44,10.89,10.89,0,0,1-3.14,1,10,10,0,0,1,2.95-1.44A10.43,10.43,0,0,1,470.57,336.4Z" style="fill:#fff"></path><path d="M470.57,330.5A7.89,7.89,0,0,1,468.2,329c-1.23-1-2.15-1.84-2.06-1.95a7.71,7.71,0,0,1,2.38,1.54C469.74,329.51,470.66,330.39,470.57,330.5Z" style="fill:#fff"></path><path d="M479.8,330.13a12.78,12.78,0,0,1,1.1-5,6.46,6.46,0,0,1-.29,2.54A6.58,6.58,0,0,1,479.8,330.13Z" style="fill:#fff"></path><path d="M485.73,342.1a9.14,9.14,0,0,1-2.05-2.25,8.84,8.84,0,0,1-1.63-2.56,9.22,9.22,0,0,1,2,2.25A9,9,0,0,1,485.73,342.1Z" style="fill:#fff"></path><path d="M481.12,309.88a8.57,8.57,0,0,1,2.24-1.88,8.3,8.3,0,0,1,2.55-1.45,8.73,8.73,0,0,1-2.25,1.88A8.31,8.31,0,0,1,481.12,309.88Z" style="fill:#fff"></path><path d="M490.2,305a11.73,11.73,0,0,1-2.07-2.81,12,12,0,0,1-1.63-3.08,11.73,11.73,0,0,1,2.07,2.81A12.17,12.17,0,0,1,490.2,305Z" style="fill:#fff"></path><path d="M494.18,321.64a6.19,6.19,0,0,1,.68-2.4A6.09,6.09,0,0,1,496,317a6.19,6.19,0,0,1-.68,2.4A6,6,0,0,1,494.18,321.64Z" style="fill:#fff"></path><path d="M492.54,331.79a7.25,7.25,0,0,1-.35-2.67,7.14,7.14,0,0,1,.17-2.68,6.93,6.93,0,0,1,.35,2.66A7,7,0,0,1,492.54,331.79Z" style="fill:#fff"></path><path d="M479.06,295.26c.06.13-.46.53-1.17.88s-1.35.54-1.41.42.46-.53,1.17-.88S479,295.14,479.06,295.26Z" style="fill:#fff"></path><path d="M462.29,221.3,438.83,479.9h60.74l22.12-258.6ZM496,475.94H444L466.14,226.6l51.13-1Z" style="fill:#455a64"></path><path d="M462.29,221.3l1,0h3l11.6,0,43.84-.08h.17l0,.16c-4.86,57.11-12.91,151.68-22,258.62l0,.24H438.55l0-.28c6.72-73.7,12.63-138.37,16.85-184.63,2.13-23.1,3.83-41.6,5-54.33.59-6.35,1-11.26,1.35-14.59.16-1.65.28-2.91.36-3.76s.14-1.27.14-1.27,0,.44-.11,1.3-.18,2.13-.32,3.8c-.3,3.35-.73,8.27-1.3,14.65-1.13,12.75-2.79,31.27-4.86,54.39-4.16,46.23-10,110.85-16.62,184.49l-.25-.28h60.74l-.26.24c9.2-106.93,17.32-201.49,22.23-258.59l.15.16-43.76-.08-11.62,0-3,0Z" style="fill:#263238"></path><path d="M499.57,479.9s-.1-.07-.26-.24-.44-.44-.72-.74L495.92,476l.11,0c-5.7.08-15.49.12-26.61.12-10.43,0-19.69,0-25.43-.1l.09,0-3.84,2.86-1,.74c-.23.17-.36.25-.37.23a1.87,1.87,0,0,1,.32-.3l1-.8,3.76-3,0,0H444c5.74-.06,15-.1,25.43-.1,11.12,0,20.91.05,26.61.12h.06l.05.05,2.56,3,.66.8A1.73,1.73,0,0,1,499.57,479.9Z" style="fill:#263238"></path><path d="M521.69,221.3l-.25.27-.8.82-3.32,3.3,0,0c-1.21,15.5-5.27,64.34-10.17,122.07-3,35.41-5.78,67.46-7.77,90.68-1,11.59-1.84,21-2.42,27.47-.29,3.23-.52,5.74-.68,7.47-.08.84-.14,1.49-.19,1.94s-.08.66-.08.66,0-.22,0-.66.08-1.11.14-1.95c.13-1.73.33-4.24.58-7.47.53-6.51,1.3-15.9,2.25-27.49,2-23.23,4.65-55.28,7.62-90.7,4.9-57.73,9.12-106.55,10.54-122v0l0,0,3.38-3.25.82-.78C521.6,221.37,521.69,221.3,521.69,221.3Z" style="fill:#263238"></path><path d="M462.29,221.3a1.58,1.58,0,0,1,.29.33l.79,1,2.91,3.86-.14-.07c5.19-.15,13.25-.34,22.28-.51l20.4-.31,6.18,0,1.68,0a2.52,2.52,0,0,1,.59,0,2.27,2.27,0,0,1-.59.06l-1.68.08-6.18.2-20.39.46c-9,.17-17.09.28-22.28.32h-.09l-.05-.07-2.78-3.94-.72-1.07C462.35,221.44,462.27,221.31,462.29,221.3Z" style="fill:#263238"></path><path d="M444,475.94c-.15,0,4.7-55.84,10.82-124.69S466,226.59,466.14,226.6s-4.7,55.83-10.82,124.7S444.13,476,444,475.94Z" style="fill:#263238"></path><path d="M494.19,409.63c.12.07-5.29,9.79-12.09,21.7s-12.41,21.52-12.53,21.45,5.28-9.79,12.08-21.71S494.06,409.55,494.19,409.63Z" style="fill:#263238"></path><path d="M484.85,438.12c.12.07-2.66,5.13-6.21,11.29s-6.54,11.1-6.66,11,2.65-5.13,6.21-11.29S484.73,438.05,484.85,438.12Z" style="fill:#263238"></path><path d="M508.32,228.92a90.7,90.7,0,0,1-5.89,7.93,90.08,90.08,0,0,1-6.3,7.62,97,97,0,0,1,5.89-7.94A95.69,95.69,0,0,1,508.32,228.92Z" style="fill:#263238"></path><path d="M509.73,235.74a27.66,27.66,0,0,0-4.54,4.47,28.16,28.16,0,0,0-3,5.64,5,5,0,0,1,.39-1.87,15,15,0,0,1,2.15-4.08,14.57,14.57,0,0,1,3.29-3.24A4.94,4.94,0,0,1,509.73,235.74Z" style="fill:#263238"></path></g><g id="freepik--Plants--inject-68"><path d="M80.2,360c-8.28-12.66-8-31.17,1.92-42.62,3.07-3.56,7.36-6.65,12-6.25s8.65,4.52,10.11,9.1,1,9.55.09,14.28c-1.19,6.63-3.2,13.4-7.8,18.32S86.1,363.24,80.2,360" style="fill:#FF725E"></path><path d="M83.89,420.54a18.92,18.92,0,0,1,5.27-21.49c1.9-1.55,4.39-2.75,6.77-2.12s4,3.11,4.38,5.6a15.53,15.53,0,0,1-1.24,7.37c-1.22,3.3-2.87,6.61-5.68,8.73s-6.75,4.11-9.5,1.91" style="fill:#FF725E"></path><path d="M63.92,416.2a27.38,27.38,0,0,0-13.8-28.9c-3.16-1.64-7-2.61-10.22-1s-4.82,5.6-4.56,9.23,2,7,3.93,10.07c2.7,4.33,6,8.53,10.62,10.7s10.78,3.84,14-.08" style="fill:#FF725E"></path><path d="M65.35,385.84c4-12.79-2.75-28.3-13.95-35.64-3.48-2.28-7.88-3.86-11.77-2.38s-6.26,5.95-6.39,10.2,1.52,8.36,3.4,12.18c2.63,5.34,6,10.62,11.1,13.69s13.37,6.13,17.61,1.95" style="fill:#FF725E"></path><path d="M73.32,448.36a2.29,2.29,0,0,1-.13-.62L72.92,446q-.08-.58-.18-1.29c-.09-.47-.19-1-.29-1.52-.21-1.09-.43-2.34-.78-3.69-.17-.68-.34-1.39-.52-2.13s-.44-1.5-.67-2.29c-.42-1.59-1.06-3.23-1.65-5a98.33,98.33,0,0,0-4.93-10.95,98.75,98.75,0,0,0-6.4-10.17c-1.13-1.46-2.15-2.89-3.24-4.12L52.73,403l-1.49-1.61c-.93-1.05-1.85-1.91-2.65-2.69l-1.1-1.09-1-.86-1.34-1.21c-.3-.28-.46-.43-.44-.45a4.47,4.47,0,0,1,.51.37l1.41,1.13,1,.83,1.14,1.06c.82.76,1.76,1.61,2.71,2.65L53,402.72l1.56,1.81c1.11,1.23,2.15,2.66,3.3,4.12a89.48,89.48,0,0,1,6.47,10.21,91.64,91.64,0,0,1,4.93,11c.58,1.77,1.2,3.42,1.61,5,.22.79.44,1.56.65,2.3s.33,1.47.48,2.15c.34,1.37.53,2.63.71,3.73.09.54.17,1.06.25,1.53s.09.9.13,1.3c.07.74.12,1.33.16,1.8A3.32,3.32,0,0,1,73.32,448.36Z" style="fill:#263238"></path><path d="M73,450.66a.81.81,0,0,1,0-.25c0-.2,0-.45.06-.74.06-.7.15-1.65.26-2.85.06-.62.13-1.3.2-2.05s.08-1.57.13-2.45c.06-1.75.23-3.75.17-6,0-1.1,0-2.26,0-3.47s-.13-2.46-.19-3.76c-.08-2.6-.44-5.36-.75-8.27A130.41,130.41,0,0,0,69,402.25a128.51,128.51,0,0,0-6.85-17.74c-1.32-2.61-2.53-5.11-3.87-7.34-.66-1.13-1.25-2.24-1.9-3.26L54.45,371c-1.15-1.89-2.38-3.47-3.39-4.91-.52-.71-1-1.39-1.44-2l-1.29-1.61-1.77-2.24-.45-.59a1.46,1.46,0,0,1-.14-.21s.07.05.18.18l.49.55c.46.53,1.07,1.26,1.85,2.18l1.33,1.58c.47.59,1,1.26,1.48,2,1,1.42,2.29,3,3.47,4.88l1.92,2.91c.66,1,1.26,2.13,1.93,3.25,1.36,2.23,2.59,4.74,3.93,7.35a126.82,126.82,0,0,1,6.92,17.8,126,126,0,0,1,3.9,18.7c.31,2.92.64,5.69.71,8.3,0,1.31.16,2.57.16,3.78s0,2.37,0,3.49c0,2.22-.16,4.22-.25,6-.06.88-.1,1.7-.17,2.45s-.17,1.43-.25,2c-.15,1.2-.27,2.15-.36,2.84,0,.3-.08.54-.11.73A.83.83,0,0,1,73,450.66Z" style="fill:#263238"></path><path d="M94.58,326.43a1.28,1.28,0,0,1-.11.24c-.09.18-.21.4-.36.67-.34.61-.81,1.46-1.41,2.52-.3.55-.67,1.15-1,1.83l-1.11,2.22c-.4.8-.82,1.66-1.28,2.56s-.84,1.91-1.29,2.93-1,2.1-1.4,3.24l-1.38,3.56-.72,1.88-.67,2c-.45,1.33-.91,2.71-1.38,4.11-1.76,5.68-3.42,12-4.82,18.71s-2.32,13.19-3,19.09-1,11.24-1.17,15.74c-.12,2.24-.14,4.28-.15,6.06s0,3.33,0,4.58,0,2.19,0,2.9V422c0,.17,0,.26,0,.26a.7.7,0,0,1,0-.26c0-.2,0-.44,0-.75,0-.7-.08-1.67-.14-2.89s-.1-2.8-.1-4.59,0-3.82.06-6.07c.08-4.51.48-9.86,1.06-15.79s1.62-12.4,3-19.14S80.18,359.69,82,354l1.41-4.12c.23-.66.46-1.32.68-2s.5-1.26.74-1.88l1.41-3.56c.47-1.14,1-2.21,1.44-3.24s.89-2,1.33-2.92l1.32-2.54c.41-.79.8-1.53,1.15-2.22s.75-1.26,1.07-1.8c.63-1.05,1.13-1.88,1.5-2.48l.4-.64A1.37,1.37,0,0,1,94.58,326.43Z" style="fill:#263238"></path><path d="M91.76,404.14a10.68,10.68,0,0,1-.88,1.54c-.6,1-1.43,2.4-2.41,4.19s-2,4-3.13,6.44-2.12,5.25-3,8.21A85.79,85.79,0,0,0,80.17,433c-.5,2.64-.84,5.05-1,7.08s-.33,3.68-.37,4.82a10.62,10.62,0,0,1-.15,1.77,11.81,11.81,0,0,1-.06-1.78c0-1.14,0-2.8.2-4.85s.46-4.47.93-7.14a72.75,72.75,0,0,1,5.2-16.82,70.08,70.08,0,0,1,3.26-6.42c1-1.78,1.9-3.18,2.57-4.12A11.79,11.79,0,0,1,91.76,404.14Z" style="fill:#263238"></path><polygon points="57.05 442.66 93.42 442.66 89.02 479.81 61.59 479.81 57.05 442.66" style="fill:#455a64"></polygon><polygon points="58.38 475.8 61.47 479.81 89.02 479.81 92.2 475.93 58.38 475.8" style="fill:#263238"></polygon><path d="M92,453.59c0,.15-7.55.27-16.86.27s-16.86-.12-16.86-.27,7.55-.27,16.86-.27S92,453.44,92,453.59Z" style="fill:#fafafa"></path><path d="M92,456.06c0,.15-7.55.27-16.86.27s-16.86-.12-16.86-.27,7.55-.27,16.86-.27S92,455.91,92,456.06Z" style="fill:#fafafa"></path><path d="M91.55,458.46c0,.14-7.28.27-16.26.27S59,458.6,59,458.46s7.28-.28,16.27-.28S91.55,458.31,91.55,458.46Z" style="fill:#fafafa"></path><path d="M62.61,362.61a1.55,1.55,0,0,1,0,.35c0,.28,0,.61-.09,1-.09.93-.22,2.18-.37,3.7-.33,3.13-.82,7.44-1.37,12.2,0,.18-.05.36-.07.53v.16h-.17c-4.67.07-8.87.12-11.91.13H45l-1,0-.34,0a1.18,1.18,0,0,1,.34,0l1-.05,3.59-.11c3-.08,7.24-.17,11.91-.25l-.18.17.06-.54c.56-4.76,1.08-9.06,1.48-12.18.2-1.51.37-2.76.49-3.69l.15-1A1.49,1.49,0,0,1,62.61,362.61Z" style="fill:#263238"></path><path d="M54.34,351.5a1.77,1.77,0,0,1,0,.36c0,.29,0,.63,0,1.05,0,1,0,2.25,0,3.83,0,3.24-.13,7.71-.25,12.64l0,.59v.19l-.19,0a114.05,114.05,0,0,0-12.23-.27c-1.56.05-2.82.11-3.69.16l-1,0h-.35A1.26,1.26,0,0,1,37,370l1-.11c.87-.09,2.13-.2,3.69-.28a98.12,98.12,0,0,1,12.27.17l-.2.18c0-.19,0-.39,0-.59.12-4.93.25-9.4.36-12.64.07-1.57.12-2.87.16-3.83,0-.41,0-.76.06-1A1.26,1.26,0,0,1,54.34,351.5Z" style="fill:#263238"></path><path d="M44.66,347.72a5.91,5.91,0,0,1,.23,1.06l.54,2.93c.47,2.46,1.21,5.87,2.25,9.59l.11.39-.37-.17-.44-.21a31.31,31.31,0,0,0-9.69-2.84c-1.29-.16-2.35-.22-3.07-.24a7.51,7.51,0,0,1-1.14-.07,1.4,1.4,0,0,1,.3,0l.84,0a27.23,27.23,0,0,1,3.1.13A29.61,29.61,0,0,1,47.14,361l.44.22-.26.21a91,91,0,0,1-2.14-9.65c-.21-1.24-.35-2.25-.43-2.95A7.11,7.11,0,0,1,44.66,347.72Z" style="fill:#263238"></path><path d="M96,415.43c0,.06-1-.05-2.75-.11a44.86,44.86,0,0,0-6.61.21l-1.53.19-.17,0,0-.17c-.39-2.2-.72-4.14-.94-5.53a16.54,16.54,0,0,1-.29-2.24,13.93,13.93,0,0,1,.52,2.2c.29,1.38.66,3.31,1.07,5.51l-.21-.15c.49-.07,1-.14,1.54-.19a36.2,36.2,0,0,1,6.66-.11c.86.06,1.54.15,2,.22A3.16,3.16,0,0,1,96,415.43Z" style="fill:#263238"></path><path d="M99.46,408.61c0,.06-1-.18-2.67-.38a29.34,29.34,0,0,0-6.45-.07l-1.14.14-.19,0,0-.19c-.23-2.26-.42-4.26-.53-5.7a14.77,14.77,0,0,1-.12-2.32,14.74,14.74,0,0,1,.36,2.29c.18,1.44.41,3.43.65,5.69l-.21-.16,1.16-.14a25.1,25.1,0,0,1,6.53.17c.82.13,1.48.29,1.94.41A2.43,2.43,0,0,1,99.46,408.61Z" style="fill:#263238"></path><path d="M101.92,344l-.36.18-1.06.48-3.94,1.67-13,5.4-.7.29-.16.06-.08-.16-5.5-12.43-1.62-3.76c-.17-.42-.31-.75-.42-1a1.46,1.46,0,0,1-.13-.36,1.31,1.31,0,0,1,.19.33l.49,1,1.72,3.72,5.61,12.38-.24-.09.71-.29L96.46,346l4-1.57,1.09-.4C101.78,344,101.91,343.93,101.92,344Z" style="fill:#263238"></path><path d="M105.11,328.24a2.38,2.38,0,0,1-.32.23l-1,.62-3.55,2.21-11.85,7.23-.18.11-.08-.21-.22-.57c-1.93-5.21-3.68-9.93-5-13.4l-1.47-4.07-.38-1.11a2.43,2.43,0,0,1-.11-.4,1.18,1.18,0,0,1,.18.37l.45,1.09,1.57,4c1.32,3.46,3.1,8.16,5.07,13.35l.21.57-.27-.09,11.91-7.13,3.61-2.11,1-.56A1.73,1.73,0,0,1,105.11,328.24Z" style="fill:#263238"></path><path d="M104.06,319.85a4.69,4.69,0,0,1-.78.47c-.51.28-1.25.69-2.15,1.25a38.65,38.65,0,0,0-6.59,5.16l-.45.44.15-.62c.16-.65.31-1.33.42-2a23.59,23.59,0,0,0-.52-9.69,27.28,27.28,0,0,0-.93-2.82,9.3,9.3,0,0,1-.39-1,5.25,5.25,0,0,1,.52,1,19.3,19.3,0,0,1,1,2.81,22.63,22.63,0,0,1,.63,9.82,21,21,0,0,1-.43,2.07l-.3-.17a34.86,34.86,0,0,1,6.72-5.11c.92-.53,1.68-.91,2.21-1.16A4.32,4.32,0,0,1,104.06,319.85Z" style="fill:#263238"></path><path d="M62.56,401.4a4.8,4.8,0,0,1-.16.94c-.13.6-.31,1.47-.51,2.55a64,64,0,0,0-1,8.62v.16h-.16l-.82.05c-3.6.22-6.87.4-9.23.51l-2.8.11a5.81,5.81,0,0,1-1,0,5.25,5.25,0,0,1,1-.14l2.79-.22c2.36-.18,5.63-.4,9.23-.61l.82-.05-.18.17a53.53,53.53,0,0,1,1.1-8.64c.23-1.09.45-2,.62-2.54A4.81,4.81,0,0,1,62.56,401.4Z" style="fill:#263238"></path><path d="M55.42,391.15a5.57,5.57,0,0,1-.06,1c-.08.68-.18,1.54-.3,2.59-.26,2.18-.65,5.22-1.11,8.63l0,.15h-.15l-1.17.07c-3.7.25-7,.64-9.44.95l-2.85.38a7.22,7.22,0,0,1-1,.11,4.55,4.55,0,0,1,1-.25c.66-.13,1.63-.31,2.83-.5,2.41-.38,5.74-.8,9.45-1.05l1.17-.08-.17.16c.47-3.41.91-6.44,1.23-8.62.17-1,.31-1.9.41-2.57A4.07,4.07,0,0,1,55.42,391.15Z" style="fill:#263238"></path><path d="M47,386.74c.06,0-.16,1-.42,2.62A45.57,45.57,0,0,0,46,395.8v.2l-.21,0-.61-.08a56.73,56.73,0,0,0-6.87-.41l-2.09,0a4.78,4.78,0,0,1-.77,0,2.94,2.94,0,0,1,.77-.13c.49-.05,1.2-.1,2.09-.14a44.06,44.06,0,0,1,6.92.3l.61.08-.21.18a37.61,37.61,0,0,1,.71-6.47c.16-.81.32-1.46.44-1.9A3.31,3.31,0,0,1,47,386.74Z" style="fill:#263238"></path><path d="M94.92,397a32.92,32.92,0,0,1-1.63,3.69,34.9,34.9,0,0,1-1.74,3.63A16.17,16.17,0,0,1,93,400.52,16.44,16.44,0,0,1,94.92,397Z" style="fill:#263238"></path><path d="M99.49,401.83a36.4,36.4,0,0,0-4.13.84,39.84,39.84,0,0,0-3.89,1.64,9.64,9.64,0,0,1,3.78-2A9.49,9.49,0,0,1,99.49,401.83Z" style="fill:#263238"></path><path d="M686.31,409.46A19,19,0,0,1,698.09,408c2.13.35,4.36,1,5.82,2.59s1.73,4.43.06,5.81a5.56,5.56,0,0,1-3.67.93c-3.12,0-6.57-.58-9.06,1.29-1.42,1.07-2.36,2.85-4.06,3.37a4,4,0,0,1-4.41-2,6.86,6.86,0,0,1-.5-5.06A7.71,7.71,0,0,1,686.31,409.46Z" style="fill:#FF725E"></path><path d="M678.1,393.61c2.19,3.13,6.45,2.1,8.42.19s2.81-4.68,3.57-7.32c1.74-6,3.49-12.36,2.2-18.5a10.31,10.31,0,0,0-2.37-5,5.39,5.39,0,0,0-5.08-1.7c-2.15.57-3.49,2.67-4.45,4.67A44,44,0,0,0,676,384.85c0,3,.35,6.25,2.07,8.76" style="fill:#FF725E"></path><path d="M672.08,398.1c2.38-2.82,2.83-6.94,1.78-10.48a20.23,20.23,0,0,0-6.21-9,33.3,33.3,0,0,0-11.11-6.55,11.81,11.81,0,0,0-5-.85,5.24,5.24,0,0,0-4.19,2.53c-1.17,2.24-.05,4.94,1.16,7.15a84.42,84.42,0,0,0,7.3,11.11c2.19,2.82,4.69,5.6,8,6.88s6.79,1.12,8.56-1.19" style="fill:#FF725E"></path><path d="M678,440.81a6.56,6.56,0,0,0,.2-1.42c.1-1,.23-2.33.38-3.88a57,57,0,0,1,.87-5.69,43.64,43.64,0,0,1,2.07-6.72A25,25,0,0,1,684.9,417a12.75,12.75,0,0,1,4.34-3.6,12.06,12.06,0,0,1,3.65-1.14,6.68,6.68,0,0,0,1.41-.2,6.64,6.64,0,0,0-1.44,0,11.24,11.24,0,0,0-3.81,1,12.79,12.79,0,0,0-4.57,3.63,24.31,24.31,0,0,0-3.56,6.2,41.19,41.19,0,0,0-2,6.83,48.57,48.57,0,0,0-.76,5.76c-.12,1.65-.17,3-.19,3.91A6.63,6.63,0,0,0,678,440.81Z" style="fill:#263238"></path><path d="M678.22,437.83a3.1,3.1,0,0,0,0-.66c0-.5,0-1.12,0-1.89,0-1.64,0-4,.09-6.93.14-5.85.64-12.15,1.62-21,.92-8.35,2.16-18.06,3.46-24.38.28-1.44.56-2.73.83-3.86s.47-2.12.68-2.91l.44-1.83a2.87,2.87,0,0,0,.11-.65,2.59,2.59,0,0,0-.23.62l-.54,1.8c-.25.79-.5,1.76-.78,2.89s-.61,2.42-.91,3.85a214,214,0,0,0-3.65,22.63c-1,8.89-1.41,17-1.45,22.86,0,2.93,0,5.31.1,7,.05.76.09,1.39.12,1.88A2.71,2.71,0,0,0,678.22,437.83Z" style="fill:#263238"></path><path d="M678.26,422.2a12.88,12.88,0,0,0,0-2,52.82,52.82,0,0,0-.6-5.34,71.5,71.5,0,0,0-1.74-7.78,63.16,63.16,0,0,0-3.25-9.2A49.07,49.07,0,0,0,663.1,383a24.37,24.37,0,0,0-2.25-2.09c-.34-.29-.65-.58-1-.81l-.87-.6a11.48,11.48,0,0,0-1.66-1.06,57.59,57.59,0,0,1,5.44,4.85,51.62,51.62,0,0,1,9.31,14.82,70,70,0,0,1,3.27,9.12,78.18,78.18,0,0,1,1.85,7.7c.41,2.22.64,4,.79,5.29A11.74,11.74,0,0,0,678.26,422.2Z" style="fill:#263238"></path><polygon points="663.16 449.76 664.72 471.21 692.28 471.21 693.84 449.76 663.16 449.76" style="fill:#263238"></polygon><rect x="660.49" y="441.31" width="36.64" height="8.45" style="fill:#263238"></rect><polygon points="660.49 470.39 660.49 472.74 662.22 472.74 696.52 472.74 696.52 470.39 660.49 470.39" style="fill:#455a64"></polygon><polygon points="663.9 476.86 662.22 472.74 695.21 472.74 693.24 476.86 663.9 476.86" style="fill:#455a64"></polygon><path d="M693.33,456.77s0,.08-.13.2l-.41.55-1.6,2.05-.08.09-.06-.09-3.95-5.46h.23l-3.88,5.5-.13.17-.13-.16-4.61-5.48h.27l-.25.32c-1.43,1.79-2.82,3.52-4.12,5.16l-.14.17-.13-.18c-1.39-2-2.7-3.82-3.88-5.49h.23l-4.79,5.45-.08.09-.07-.1c-.63-1.06-1.13-1.91-1.5-2.52l-.38-.67a.81.81,0,0,1-.12-.24,1.37,1.37,0,0,1,.16.21l.43.65,1.57,2.47h-.15l4.71-5.52.12-.14.1.15c1.2,1.66,2.51,3.5,3.92,5.47h-.26l4.11-5.17.25-.31.13-.17.14.16,4.59,5.49h-.26c1.42-2,2.74-3.82,3.92-5.47l.12-.16.11.16,3.86,5.52h-.14l1.67-2,.45-.52A1.46,1.46,0,0,1,693.33,456.77Z" style="fill:#e0e0e0"></path><path d="M694.23,449.62c0,.1-6.91.17-15.42.17s-15.42-.07-15.42-.17,6.9-.17,15.42-.17S694.23,449.53,694.23,449.62Z" style="fill:#455a64"></path><path d="M695.62,473c0,.09-7.51.17-16.76.17s-16.76-.08-16.76-.17,7.5-.17,16.76-.17S695.62,472.87,695.62,473Z" style="fill:#263238"></path></g><g id="freepik--Character--inject-68"><path d="M391.52,216.34a128.58,128.58,0,0,1,0,31.79c-.34,2.66-.9,5.58-3,7.25-2.5,2-6.44,1.3-8.73-.94s-3.12-5.61-3.08-8.81a56.75,56.75,0,0,1,1.44-9.47c.77-4.14,1.15-8.45,3-12.23s5.69-7,9.88-6.58" style="fill:#263238"></path><path d="M389.35,186.18c-4.78-4.72-19.05-4.38-24.41-.34s-8.15,10.73-9.28,17.35-.86,13.4-1.41,20.1-2.05,13.58-6.18,18.88c-1.77,2.26-4,4.17-5.55,6.56a15.08,15.08,0,0,0-.62,15.52,13.64,13.64,0,0,0,13.88,6.53c5.56-1.06,9.83-5.79,12-11s2.47-11,2.91-16.64a458.17,458.17,0,0,1,7.07-52.3" style="fill:#263238"></path><path d="M391.2,237.06l-5-1.35H364.28l-11.9,7s20.8,9.36,28.51,5.6a21.65,21.65,0,0,0,10.31-10.64" style="fill:#c69481"></path><path d="M364.25,206.11h0a14.21,14.21,0,0,1,11.13-14.24l6.1-1.36c5.41-.74,11.46,4.52,12,10,.57,6.05,1,13.46.45,18-1.16,9.14-8.09,10.51-8.09,10.51l-.74,20-20.1.87Z" style="fill:#c69481"></path><path d="M391.1,207.13a1.18,1.18,0,0,1-1.09,1.21,1.11,1.11,0,0,1-1.23-1,1.16,1.16,0,0,1,1.08-1.22A1.12,1.12,0,0,1,391.1,207.13Z" style="fill:#263238"></path><path d="M391.65,203.71c-.14.16-1-.47-2.3-.43s-2.15.7-2.29.55.06-.34.46-.65a3.2,3.2,0,0,1,1.83-.62,3,3,0,0,1,1.83.53C391.58,203.37,391.72,203.64,391.65,203.71Z" style="fill:#263238"></path><path d="M379.51,207.48a1.18,1.18,0,0,1-1.09,1.21,1.12,1.12,0,0,1-1.23-1,1.16,1.16,0,0,1,1.08-1.21A1.12,1.12,0,0,1,379.51,207.48Z" style="fill:#263238"></path><path d="M379.32,204.36c-.14.16-1-.47-2.29-.43s-2.16.7-2.3.55.07-.34.46-.65a3.23,3.23,0,0,1,1.83-.62,3.05,3.05,0,0,1,1.84.53C379.25,204,379.39,204.29,379.32,204.36Z" style="fill:#263238"></path><path d="M384.17,214.17a8.2,8.2,0,0,1,2-.43c.32,0,.62-.11.67-.33a1.68,1.68,0,0,0-.24-.95c-.33-.76-.67-1.56-1-2.41a41.57,41.57,0,0,1-2.32-6.31,42.39,42.39,0,0,1,2.83,6.11l1,2.43a1.85,1.85,0,0,1,.2,1.25.8.8,0,0,1-.51.49,3,3,0,0,1-.54.09A7.31,7.31,0,0,1,384.17,214.17Z" style="fill:#263238"></path><path d="M385.8,229a24,24,0,0,1-12.58-2.88s3.08,6.29,12.46,5.17Z" style="fill:#936457"></path><path d="M383.73,217.21a2.26,2.26,0,0,0-2.05-.77,2,2,0,0,0-1.41.81,1.31,1.31,0,0,0,0,1.49,1.51,1.51,0,0,0,1.66.37,4.69,4.69,0,0,0,1.57-1,1.4,1.4,0,0,0,.35-.38.42.42,0,0,0,0-.47" style="fill:#936457"></path><path d="M380.5,215.16c.2,0,.25,1.34,1.44,2.27s2.64.74,2.66.93-.31.27-.93.31a3.37,3.37,0,0,1-2.21-.7,3,3,0,0,1-1.13-1.91C380.27,215.49,380.41,215.15,380.5,215.16Z" style="fill:#263238"></path><path d="M379.5,200.57c-.12.35-1.38.23-2.84.45s-2.65.66-2.85.36c-.09-.14.1-.47.57-.82a4.81,4.81,0,0,1,2.1-.8,4.74,4.74,0,0,1,2.24.19C379.26,200.15,379.54,200.41,379.5,200.57Z" style="fill:#263238"></path><path d="M391.48,199.41c-.21.29-1.09,0-2.13,0s-1.91.25-2.12,0c-.1-.14,0-.43.41-.71a2.94,2.94,0,0,1,1.71-.53,3,3,0,0,1,1.71.52C391.44,199,391.57,199.27,391.48,199.41Z" style="fill:#263238"></path><path d="M395.06,190.44c-1.17-3.7-8.37-8.28-16-4.86a15,15,0,0,0-10.64,4.1c-6.74,6.14-4.16,21.21-4.16,21.21A34.14,34.14,0,0,0,375,202.22c4.33-5.22,6.7-9.31,7.55-11.78h0c7,1.7,9.7,7.85,10.94,10.51C395.08,199.13,397.12,197,395.06,190.44Z" style="fill:#263238"></path><path d="M365.76,210c-.15-.08-6-2-6.06,4s6,4.86,6,4.69S365.76,210,365.76,210Z" style="fill:#c69481"></path><path d="M363.92,216.33s-.11.07-.29.15a1,1,0,0,1-.79,0,2.62,2.62,0,0,1-1.18-2.35,3.48,3.48,0,0,1,.31-1.51,1.21,1.21,0,0,1,.8-.8.54.54,0,0,1,.62.29c.08.17,0,.29.07.3s.13-.1.08-.35a.65.65,0,0,0-.23-.38.8.8,0,0,0-.58-.16,1.49,1.49,0,0,0-1.11.93,3.53,3.53,0,0,0-.38,1.68,2.73,2.73,0,0,0,1.51,2.63,1.13,1.13,0,0,0,1-.15C363.91,216.47,363.94,216.34,363.92,216.33Z" style="fill:#936457"></path><path d="M332.75,378.39l-28,94.18H319s28.7-46.43,30.29-62.89c1.3-13.4,16.16-42.79,16.16-42.79Z" style="fill:#c69481"></path><path d="M372.82,362.37c1.19,1.79,3.38,38.75,3.14,41.15s1.74,27.4.41,37,.45,32.07.45,32.07l13.54-.25c-.27,1.77,9.53-57.55,9.53-67.43s8-48.79,8-48.79Z" style="fill:#c69481"></path><path d="M407.12,245s-3.41-3.05-6.57-3.95c-1.87-.54-14.75-3.09-14.75-3.09L403.55,266Z" style="fill:#FF725E"></path><path d="M364.78,235.71s-16.6,6.23-19.24,8.57c-1.12,1-.8,11.56.58,22.89.31,2.55,1.2,4.76,1.55,7.35,1.72,12.9,3.65,25,3.65,25l-5.2,28-13.18,50.4h71.25s5.14-20.44,6.3-34.36c1.31-15.68-6.22-33.9-6.22-33.9s-11.93-19.12-11.93-22,11.51-22.51,11.51-22.51h0l-16.94-29.38Z" style="fill:#FF725E"></path><path d="M402.93,264.66,420.38,286l-17.91,13,3.78,9.38s24.77-11.23,28-15.79a45,45,0,0,0,3.54-5.41s-2.19-6.75-3.88-8.78S413,246.51,404,243.1Z" style="fill:#FF725E"></path><path d="M347.89,266.82l-16.7,20.45,17.9,13-3.78,9.38s-24.76-11.24-28-15.8a45.73,45.73,0,0,1-3.55-5.4s2.2-6.76,3.88-8.78,19.44-32.67,28.44-36.08Z" style="fill:#FF725E"></path><path d="M348.36,256.36a15.69,15.69,0,0,1-.76,2.55,23.26,23.26,0,0,0-1.3,6.18,20.36,20.36,0,0,0,.95,6.23,15,15,0,0,1,.67,2.57,11.84,11.84,0,0,1-1-2.46,17.83,17.83,0,0,1-1.12-6.36,19.94,19.94,0,0,1,1.47-6.28A12,12,0,0,1,348.36,256.36Z" style="fill:#263238"></path><path d="M383,276.42a5,5,0,0,1-2.14.57,10.9,10.9,0,0,1-9.52-4.11,5,5,0,0,1-1.06-1.94c.08-.05.47.7,1.34,1.71a12,12,0,0,0,4.16,3,11.86,11.86,0,0,0,5.05,1C382.18,276.57,383,276.33,383,276.42Z" style="fill:#263238"></path><path d="M383.19,319.47a1.83,1.83,0,0,1-.07.5l-.3,1.42c-.26,1.22-.7,3-1.3,5.14a130.12,130.12,0,0,1-13.88,32.06c-1.16,1.92-2.14,3.44-2.85,4.47l-.83,1.18c-.19.27-.3.41-.32.4a2.33,2.33,0,0,1,.23-.45c.2-.34.45-.74.74-1.24.67-1.06,1.6-2.61,2.72-4.55a148,148,0,0,0,13.83-32c.65-2.14,1.14-3.89,1.46-5.09L383,320A1.64,1.64,0,0,1,383.19,319.47Z" style="fill:#263238"></path><path d="M427.62,287a17.57,17.57,0,0,0-3.75-1,18.27,18.27,0,0,0-3.84.39,6.64,6.64,0,0,1,7.59.57Z" style="fill:#263238"></path><path d="M323.65,279.84a10.18,10.18,0,0,1,4.59,2.89,10.48,10.48,0,0,1,2.92,4.57,37.88,37.88,0,0,0-3.29-4.2A34.63,34.63,0,0,0,323.65,279.84Z" style="fill:#263238"></path><g style="opacity:0.30000000000000004"><path d="M370.53,271.17a12.07,12.07,0,0,0,2.59,6.26,7.6,7.6,0,0,0,6,2.79,5.62,5.62,0,0,0,5.11-3.9c-2.82.36-5.79.7-8.39-.45-2.15-.95-3.75-2.81-5.28-4.61"></path></g><g style="opacity:0.30000000000000004"><path d="M381.14,248.35a25.47,25.47,0,0,0,1.32,15.16,9.07,9.07,0,0,0,2.29,3.52,4,4,0,0,0,3.94.89c1.91-.73,2.58-3,3-5a65.51,65.51,0,0,0,1.63-12.21,24.68,24.68,0,0,0-2.57-11.94,39.72,39.72,0,0,0-7.91,15"></path></g><path d="M386.4,230.83c-.13,2.36,0,7.64-1.17,9.44s-2.82,3.33-3.92,5.21c-2.71,4.6-1.95,10.45-.31,15.53a8.48,8.48,0,0,0,1.47,3,3.2,3.2,0,0,0,2.95,1.18c1.53-.32,2.33-2,2.86-3.45a66.42,66.42,0,0,0,3.56-27.89" style="fill:#263238"></path><g style="opacity:0.30000000000000004"><path d="M382.68,322S375.4,339.35,369,346.18c-2.85,3.06-6.2,6.15-6.8,10.29a4.62,4.62,0,0,0,.51,3.19c.6.93,2.23,1.78,3.24,1.33C366,361,378.34,340.64,382.68,322Z"></path></g><g style="opacity:0.30000000000000004"><path d="M387.66,296.05c-.52-.29-1,.63-.64,1.09a1.88,1.88,0,0,0,1.64.43,2.16,2.16,0,0,1,1.68.36c.74.74,0,2-.84,2.64s-1.84,1.52-1.54,2.52c.44,1.47,3,1,3.73,2.38.57,1-.32,2.25-.24,3.41a2.82,2.82,0,0,0,2.13,2.28,8.28,8.28,0,0,0,3.29,0,5.75,5.75,0,0,0-1,2.93c0,1,.91,2.12,1.95,2s1.62-1.46,2-2.52,1.36-2.27,2.43-1.87c.52.19.88.74,1.43.81a1.22,1.22,0,0,0,1.2-1.14,3.58,3.58,0,0,0-.42-1.77l-3.92-9-1.77-2.73-5.47-3.61Z"></path></g><g style="opacity:0.30000000000000004"><path d="M348.8,311.36c.35.56.87,1.19,1.52,1.07.49-.09.79-.56,1.2-.83a2.77,2.77,0,0,1,2.31-.05,4.47,4.47,0,0,0,2.34.35,1.11,1.11,0,0,0,.7-.44.63.63,0,0,0,0-.78,1,1,0,0,0-.37-.21l-4.67-1.78a2.57,2.57,0,0,0-1.11-.25,1.83,1.83,0,0,0-1.47,1.18,5.35,5.35,0,0,0-.31,1.95"></path></g><path d="M356.73,285.27a12.15,12.15,0,0,1-1.29-3.26,12.4,12.4,0,0,1-.79-3.41,11.78,11.78,0,0,1,1.29,3.26A11.91,11.91,0,0,1,356.73,285.27Z" style="fill:#fff"></path><path d="M369.64,289a11.66,11.66,0,0,1-1.68,3,11.46,11.46,0,0,1-2.11,2.75,11.84,11.84,0,0,1,1.68-3A11.46,11.46,0,0,1,369.64,289Z" style="fill:#fff"></path><path d="M375.24,312a15.93,15.93,0,0,1-2.67-5.12,8.54,8.54,0,0,1,1.56,2.44A8.3,8.3,0,0,1,375.24,312Z" style="fill:#fff"></path><path d="M363.64,318.24a15.21,15.21,0,0,1-1.47,3.66,14.68,14.68,0,0,1-1.94,3.43,15.21,15.21,0,0,1,1.47-3.66A14.68,14.68,0,0,1,363.64,318.24Z" style="fill:#fff"></path><path d="M369.49,337.41a110.15,110.15,0,0,1-.29-7.57,10.23,10.23,0,0,1,.6,3.77A10.37,10.37,0,0,1,369.49,337.41Z" style="fill:#fff"></path><path d="M349.8,347.44a26.25,26.25,0,0,1-.74-7.35,13.3,13.3,0,0,1,.63,3.65A12.74,12.74,0,0,1,349.8,347.44Z" style="fill:#fff"></path><path d="M352.09,358.61a17,17,0,0,1-2.94,3,16.58,16.58,0,0,1-3.29,2.59,17.58,17.58,0,0,1,2.94-3A17.22,17.22,0,0,1,352.09,358.61Z" style="fill:#fff"></path><path d="M360.53,372a7.88,7.88,0,0,1-1.56-2.32,7.65,7.65,0,0,1-1.11-2.58,7.64,7.64,0,0,1,1.56,2.33A7.56,7.56,0,0,1,360.53,372Z" style="fill:#fff"></path><path d="M381.9,366.13a20.7,20.7,0,0,1-3.17,3.41,20.25,20.25,0,0,1-3.54,3,42,42,0,0,1,6.71-6.44Z" style="fill:#fff"></path><path d="M383.2,356.61a24.35,24.35,0,0,1-3.78-6,12.23,12.23,0,0,1,2.11,2.87A12.06,12.06,0,0,1,383.2,356.61Z" style="fill:#fff"></path><path d="M400.85,365a10.87,10.87,0,0,1-2.39,2.43,11.24,11.24,0,0,1-2.73,2,22.45,22.45,0,0,1,5.12-4.47Z" style="fill:#fff"></path><path d="M395.76,352.56a43.69,43.69,0,0,1-3.12-8.92,42.15,42.15,0,0,1,3.12,8.92Z" style="fill:#fff"></path><path d="M400.87,331.85a20.39,20.39,0,0,1-4.4,1.17,19.78,19.78,0,0,1-4.5.66,39.85,39.85,0,0,1,8.9-1.83Z" style="fill:#fff"></path><path d="M407.84,337.62a21.59,21.59,0,0,1-1.15-4.52,21,21,0,0,1-.63-4.62,21.59,21.59,0,0,1,1.15,4.52A21,21,0,0,1,407.84,337.62Z" style="fill:#fff"></path><path d="M394.66,318.3a8.08,8.08,0,0,1-2.32,1.67,8.2,8.2,0,0,1-2.58,1.23,15.47,15.47,0,0,1,4.9-2.9Z" style="fill:#fff"></path><path d="M383.47,307.55a6.59,6.59,0,0,1-.59-2.53,6.78,6.78,0,0,1-.09-2.6,6.55,6.55,0,0,1,.6,2.53A6.42,6.42,0,0,1,383.47,307.55Z" style="fill:#fff"></path><path d="M340.66,302.88a4.32,4.32,0,0,1-.71-2.42,4.07,4.07,0,0,1,.32-2.49,11.62,11.62,0,0,1,.2,2.45A11.44,11.44,0,0,1,340.66,302.88Z" style="fill:#fff"></path><path d="M334.23,297.75a13.48,13.48,0,0,1-3.72-.55,13.64,13.64,0,0,1-3.62-1.06,27.08,27.08,0,0,1,7.34,1.61Z" style="fill:#fff"></path><path d="M323.32,287.93a7,7,0,0,1,0-2.69,7.08,7.08,0,0,1,.48-2.65,7.23,7.23,0,0,1,0,2.69A7.32,7.32,0,0,1,323.32,287.93Z" style="fill:#fff"></path><path d="M331.82,278.31a12.7,12.7,0,0,1-2.95-2,12.39,12.39,0,0,1-2.62-2.43,12.7,12.7,0,0,1,2.95,2A11.83,11.83,0,0,1,331.82,278.31Z" style="fill:#fff"></path><path d="M335.45,265.89a5.85,5.85,0,0,1-.56-2.43,6.12,6.12,0,0,1-.05-2.48,5.77,5.77,0,0,1,.56,2.42A6.18,6.18,0,0,1,335.45,265.89Z" style="fill:#fff"></path><path d="M347.17,252.78a11.94,11.94,0,0,1-3.4.93,12.3,12.3,0,0,1-3.5.42,11.94,11.94,0,0,1,3.4-.93A12.3,12.3,0,0,1,347.17,252.78Z" style="fill:#fff"></path><path d="M356.85,264.34a23.77,23.77,0,0,1,2.18-6.7,24.36,24.36,0,0,1-2.18,6.7Z" style="fill:#fff"></path><path d="M364.77,247.36a7.39,7.39,0,0,1-3.91-1.22,7.28,7.28,0,0,1-3-2.76c.11-.11,1.35,1.22,3.27,2.31S364.8,247.21,364.77,247.36Z" style="fill:#fff"></path><path d="M373.24,259.64c.1.11-.67.94-1.72,1.87a6.62,6.62,0,0,1-2.06,1.48c-.1-.11.67-.95,1.72-1.87S373.15,259.53,373.24,259.64Z" style="fill:#fff"></path><path d="M377.25,244.92c-.16,0-.44-1.5-1.25-3.21s-1.77-2.92-1.65-3a6.36,6.36,0,0,1,2.13,2.81A6.28,6.28,0,0,1,377.25,244.92Z" style="fill:#fff"></path><path d="M380.37,271.89a10.46,10.46,0,0,1-1.34-4.46,5.37,5.37,0,0,1,.92,2.16A5.55,5.55,0,0,1,380.37,271.89Z" style="fill:#fff"></path><path d="M364.32,275.9c-.07.11-.66-.19-1-.89s-.25-1.35-.11-1.34.27.53.57,1.11S364.42,275.78,364.32,275.9Z" style="fill:#fff"></path><path d="M385,288.59a18.5,18.5,0,0,1-3.17,3.09,18.77,18.77,0,0,1-3.52,2.7,38.44,38.44,0,0,1,6.69-5.79Z" style="fill:#fff"></path><path d="M392.55,273.69a11.43,11.43,0,0,1,.15-3.49,12.41,12.41,0,0,1,.68-3.43,23.78,23.78,0,0,1-.83,6.92Z" style="fill:#fff"></path><path d="M401.55,256.33a13.8,13.8,0,0,1-5.12,1.58,7.17,7.17,0,0,1,2.48-1A7,7,0,0,1,401.55,256.33Z" style="fill:#fff"></path><path d="M397.09,249.16a10.41,10.41,0,0,1,1.09-3.11,10.58,10.58,0,0,1,1.58-2.91,10.62,10.62,0,0,1-1.1,3.12A10.75,10.75,0,0,1,397.09,249.16Z" style="fill:#fff"></path><path d="M410.78,256.18a18.51,18.51,0,0,1-3.43-2.68,17.93,17.93,0,0,1-3.08-3.07,37.05,37.05,0,0,1,6.51,5.75Z" style="fill:#fff"></path><path d="M418.69,268.8a17.86,17.86,0,0,1-4.2-1,18.42,18.42,0,0,1-4.05-1.47,18.12,18.12,0,0,1,4.2,1A17.89,17.89,0,0,1,418.69,268.8Z" style="fill:#fff"></path><path d="M422.08,279.93a12.56,12.56,0,0,1,1.34-3.34,12.21,12.21,0,0,1,1.8-3.11,25.15,25.15,0,0,1-3.14,6.45Z" style="fill:#fff"></path><path d="M424.76,295.47c-.11.1-.74-.42-1.42-1.16s-1.14-1.42-1-1.52.74.43,1.42,1.17S424.87,295.37,424.76,295.47Z" style="fill:#fff"></path><path d="M410.89,301.75a14.57,14.57,0,0,1,1.33-5.35,15.12,15.12,0,0,1-1.33,5.35Z" style="fill:#fff"></path><path d="M350.84,324.48a9.71,9.71,0,0,1,.05-3.13,9.6,9.6,0,0,1,.57-3.07,9.63,9.63,0,0,1,0,3.12A9.39,9.39,0,0,1,350.84,324.48Z" style="fill:#fff"></path><path d="M339,364.33a20.59,20.59,0,0,1,1.41-4.33,20.34,20.34,0,0,1,1.89-4.14,19.27,19.27,0,0,1-1.41,4.33A20.34,20.34,0,0,1,339,364.33Z" style="fill:#fff"></path><path d="M403.1,351.33a13.58,13.58,0,0,1,.46-3.67,13.32,13.32,0,0,1,1-3.56,13.5,13.5,0,0,1-.46,3.66A12.9,12.9,0,0,1,403.1,351.33Z" style="fill:#fff"></path><path d="M402.47,299,394,293.2s-8.39.85-8.17,1.38.1,1.58,2.12,1.53,5.09,0,5.09,0l1.09,1.86-9.15,3.4a2,2,0,0,0,2,2c2,0,8-1.7,8-1.7l.53.64-8.6,4.77s-.11,2.5,1.8,1.84,9.34-4,9.34-4,.75.32.22.85-6.59,4.68-6.59,4.68-1.06.84.64,1.26,2.23,1,3.19,0a54.57,54.57,0,0,1,5.79-3.73l.1.27A3,3,0,0,0,406,309.8a1,1,0,0,0,.24-.21C406.77,308.91,402.47,299,402.47,299Z" style="fill:#c69481"></path><path d="M348.73,300.25l3.51-6.05s8.32-2.9,8.25-2.38.77,2-1,2.38a14.86,14.86,0,0,0-4.27,2.27l-.55,1.91,8.91,1a1.82,1.82,0,0,1-1.34,2.25c-1.8.45-7.47.28-7.47.28l-.33.68,8.73,2.32s.66,2.2-1.19,2-9.21-1.42-9.21-1.42-.59.45,0,.8,6.91,2.68,6.91,2.68,1.13.51-.29,1.27-1.77,1.35-2.83.72a49.35,49.35,0,0,0-6-2l0,.26a2.78,2.78,0,0,1-3.72,2.35c-.11,0-1.67-2-1.73-2Z" style="fill:#c69481"></path><path d="M305.76,468.38v1s-16.92,6.71-17.11,9.91l33.53,0-.27-11.16A19.66,19.66,0,0,1,305.76,468.38Z" style="fill:#FF725E"></path><g style="opacity:0.6000000000000001"><path d="M318.32,471.67a1.37,1.37,0,0,1,.95,1.56,1.32,1.32,0,0,1-1.54,1,1.46,1.46,0,0,1-1-1.66,1.38,1.38,0,0,1,1.72-.82" style="fill:#fff"></path></g><g style="opacity:0.6000000000000001"><path d="M322.18,479.26l-.11-2.69-32.1,1s-1.49.65-1.32,1.7Z" style="fill:#fff"></path></g><path d="M305.64,469.47c0,.16.82.24,1.63.76s1.24,1.22,1.39,1.15-.1-1-1.09-1.63S305.6,469.32,305.64,469.47Z" style="fill:#263238"></path><path d="M302.12,470.93c0,.16.67.43,1.23,1.13s.72,1.42.88,1.41.27-.93-.44-1.78S302.13,470.77,302.12,470.93Z" style="fill:#263238"></path><path d="M300.13,475.14c.15,0,.37-.78-.05-1.68s-1.18-1.25-1.25-1.12.4.62.74,1.36S300,475.12,300.13,475.14Z" style="fill:#263238"></path><path d="M392.36,469.08v1s16.35,6.49,16.54,9.58l-32.42,0,.27-10.79A19,19,0,0,0,392.36,469.08Z" style="fill:#FF725E"></path><g style="opacity:0.6000000000000001"><path d="M380.22,472.26a1.32,1.32,0,0,0-.91,1.51,1.28,1.28,0,0,0,1.49.93,1.4,1.4,0,0,0,1-1.61,1.34,1.34,0,0,0-1.66-.79" style="fill:#fff"></path></g><g style="opacity:0.6000000000000001"><path d="M376.49,479.6l.11-2.6,31,1s1.44.63,1.28,1.64Z" style="fill:#fff"></path></g><path d="M392.48,470.14c0,.15-.79.22-1.57.73s-1.2,1.18-1.34,1.11.09-1,1-1.57S392.52,470,392.48,470.14Z" style="fill:#263238"></path><path d="M395.88,471.55c0,.15-.65.42-1.18,1.09s-.7,1.37-.86,1.37-.25-.91.43-1.73S395.88,471.39,395.88,471.55Z" style="fill:#263238"></path><path d="M397.81,475.62c-.14,0-.36-.76,0-1.63s1.15-1.21,1.22-1.08-.39.6-.72,1.32S398,475.6,397.81,475.62Z" style="fill:#263238"></path></g></svg>